<svg width="1458" height="54" viewBox="0 0 1458 54" fill="none" xmlns="http://www.w3.org/2000/svg">
<rect width="26.5714" height="26.5714" fill="#86E456"/>
<rect x="53.1429" width="26.5714" height="26.5714" fill="#86E456"/>
<rect x="26.5714" y="26.5723" width="26.5714" height="26.5714" fill="#86E456"/>
<rect x="106.286" width="26.5714" height="26.5714" fill="#86E456"/>
<rect x="159.429" width="26.5714" height="26.5714" fill="#86E456"/>
<rect x="132.857" y="26.5723" width="26.5714" height="26.5714" fill="#86E456"/>
<rect x="79.7143" y="26.5723" width="26.5714" height="26.5714" fill="#86E456"/>
<rect x="159" width="26.5714" height="26.5714" fill="#86E456"/>
<rect x="212.143" width="26.5714" height="26.5714" fill="#86E456"/>
<rect x="185.571" y="26.5723" width="26.5714" height="26.5714" fill="#86E456"/>
<rect x="265.286" width="26.5714" height="26.5714" fill="#86E456"/>
<rect x="318.429" width="26.5714" height="26.5714" fill="#86E456"/>
<rect x="291.857" y="26.5723" width="26.5714" height="26.5714" fill="#86E456"/>
<rect x="238.714" y="26.5723" width="26.5714" height="26.5714" fill="#86E456"/>
<rect x="318" width="26.5714" height="26.5714" fill="#86E456"/>
<rect x="371.143" width="26.5714" height="26.5714" fill="#86E456"/>
<rect x="344.571" y="26.5723" width="26.5714" height="26.5714" fill="#86E456"/>
<rect x="424.286" width="26.5714" height="26.5714" fill="#86E456"/>
<rect x="477.429" width="26.5714" height="26.5714" fill="#86E456"/>
<rect x="450.857" y="26.5723" width="26.5714" height="26.5714" fill="#86E456"/>
<rect x="397.714" y="26.5723" width="26.5714" height="26.5714" fill="#86E456"/>
<rect x="477" width="26.5714" height="26.5714" fill="#86E456"/>
<rect x="530.143" width="26.5714" height="26.5714" fill="#86E456"/>
<rect x="503.571" y="26.5723" width="26.5714" height="26.5714" fill="#86E456"/>
<rect x="583.286" width="26.5714" height="26.5714" fill="#86E456"/>
<rect x="636.429" width="26.5714" height="26.5714" fill="#86E456"/>
<rect x="609.857" y="26.5723" width="26.5714" height="26.5714" fill="#86E456"/>
<rect x="556.714" y="26.5723" width="26.5714" height="26.5714" fill="#86E456"/>
<rect x="636" width="26.5714" height="26.5714" fill="#86E456"/>
<rect x="689.143" width="26.5714" height="26.5714" fill="#86E456"/>
<rect x="662.571" y="26.5723" width="26.5714" height="26.5714" fill="#86E456"/>
<rect x="742.286" width="26.5714" height="26.5714" fill="#86E456"/>
<rect x="795.429" width="26.5714" height="26.5714" fill="#86E456"/>
<rect x="768.857" y="26.5723" width="26.5714" height="26.5714" fill="#86E456"/>
<rect x="715.714" y="26.5723" width="26.5714" height="26.5714" fill="#86E456"/>
<rect x="795" width="26.5714" height="26.5714" fill="#86E456"/>
<rect x="848.143" width="26.5714" height="26.5714" fill="#86E456"/>
<rect x="821.571" y="26.5723" width="26.5714" height="26.5714" fill="#86E456"/>
<rect x="901.286" width="26.5714" height="26.5714" fill="#86E456"/>
<rect x="954.429" width="26.5714" height="26.5714" fill="#86E456"/>
<rect x="927.857" y="26.5723" width="26.5714" height="26.5714" fill="#86E456"/>
<rect x="874.714" y="26.5723" width="26.5714" height="26.5714" fill="#86E456"/>
<rect x="954" width="26.5714" height="26.5714" fill="#86E456"/>
<rect x="1007.14" width="26.5714" height="26.5714" fill="#86E456"/>
<rect x="980.571" y="26.5723" width="26.5714" height="26.5714" fill="#86E456"/>
<rect x="1060.29" width="26.5714" height="26.5714" fill="#86E456"/>
<rect x="1113.43" width="26.5714" height="26.5714" fill="#86E456"/>
<rect x="1086.86" y="26.5723" width="26.5714" height="26.5714" fill="#86E456"/>
<rect x="1033.71" y="26.5723" width="26.5714" height="26.5714" fill="#86E456"/>
<rect x="1113" width="26.5714" height="26.5714" fill="#86E456"/>
<rect x="1166.14" width="26.5714" height="26.5714" fill="#86E456"/>
<rect x="1139.57" y="26.5723" width="26.5714" height="26.5714" fill="#86E456"/>
<rect x="1219.29" width="26.5714" height="26.5714" fill="#86E456"/>
<rect x="1272.43" width="26.5714" height="26.5714" fill="#86E456"/>
<rect x="1245.86" y="26.5723" width="26.5714" height="26.5714" fill="#86E456"/>
<rect x="1192.71" y="26.5723" width="26.5714" height="26.5714" fill="#86E456"/>
<rect x="1272" width="26.5714" height="26.5714" fill="#86E456"/>
<rect x="1325.14" width="26.5714" height="26.5714" fill="#86E456"/>
<rect x="1298.57" y="26.5723" width="26.5714" height="26.5714" fill="#86E456"/>
<rect x="1378.29" width="26.5714" height="26.5714" fill="#86E456"/>
<rect x="1431.43" width="26.5714" height="26.5714" fill="#86E456"/>
<rect x="1404.86" y="26.5723" width="26.5714" height="26.5714" fill="#86E456"/>
<rect x="1351.71" y="26.5723" width="26.5714" height="26.5714" fill="#86E456"/>
</svg>
