<svg width="30" height="30" viewBox="0 0 30 30" fill="none" xmlns="http://www.w3.org/2000/svg">
<g clip-path="url(#clip0_156_2529)">
<path d="M29.3485 15.0431L29.3485 14.9869C29.3204 7.03042 22.9114 0.537109 15.0675 0.537109C7.22346 0.537109 0.786377 7.03042 0.786377 15.0431C0.786377 23.0568 7.19433 29.5371 15.0675 29.5371C18.6802 29.5396 22.1547 28.149 24.7683 25.6548C25.0257 25.4196 25.1791 25.0918 25.1948 24.7435C25.2106 24.3952 25.0873 24.0549 24.8521 23.7975C24.6169 23.54 24.2891 23.3866 23.9408 23.3709C23.5925 23.3551 23.2522 23.4784 22.9948 23.7136L22.9667 23.7417C21.839 24.8137 20.5063 25.6468 19.0487 26.191C17.591 26.7352 16.0384 26.9792 14.4841 26.9083C12.9298 26.8375 11.4059 26.4534 10.0037 25.7789C8.60159 25.1045 7.3502 24.1537 6.32467 22.9835L12.4253 13.2004L12.4253 17.7274C12.4253 19.8905 13.2689 20.5945 13.9779 20.7913C14.6869 20.9881 15.7503 20.8455 16.9022 19.0189L20.2493 13.584C20.3386 13.4253 20.4421 13.2747 20.5565 13.1331L20.5565 15.8897C20.5565 17.9132 21.372 19.5441 22.7769 20.3304C23.4254 20.6835 24.1575 20.8544 24.8953 20.8248C25.6332 20.7953 26.3493 20.5665 26.9675 20.1627C28.5903 19.1092 29.462 17.2645 29.3485 15.0431ZM25.6369 17.8901C25.4115 18.0454 25.1488 18.1375 24.8758 18.1571C24.6029 18.1767 24.3296 18.123 24.0844 18.0016C23.522 17.6652 23.1836 16.907 23.1836 15.8666L23.1836 12.6802C23.1836 11.1638 22.5931 10.0662 21.5819 9.78702C19.8656 9.26884 18.5742 11.3888 18.0952 12.1761L15.0675 17.0385L15.0675 11.0513C15.0393 9.67455 14.5884 8.85912 13.7449 8.60505C13.1825 8.43734 12.339 8.5227 11.5245 9.75991L4.74905 20.6106C3.84768 18.893 3.37531 16.9828 3.37226 15.0431C3.37226 8.49258 8.62837 3.17922 15.0675 3.17922C21.5065 3.17922 26.7627 8.49257 26.7627 15.0431L26.7627 15.1004C26.8299 16.3637 26.4242 17.378 25.6379 17.8821L25.6369 17.8901Z" fill="black"/>
</g>
<defs>
<clipPath id="clip0_156_2529">
<rect width="29" height="29" fill="white" transform="translate(0.786377 0.537109)"/>
</clipPath>
</defs>
</svg>
