<svg width="30" height="29" viewBox="0 0 30 29" fill="none" xmlns="http://www.w3.org/2000/svg">
<path d="M6.25 18.5156H5C4.33696 18.5156 3.70107 18.2523 3.23224 17.7834C2.76339 17.3145 2.5 16.6787 2.5 16.0156V4.76563C2.5 4.10258 2.76339 3.46669 3.23224 2.99786C3.70107 2.52901 4.33696 2.26562 5 2.26562H16.25C16.9131 2.26562 17.5489 2.52901 18.0178 2.99786C18.4867 3.46669 18.75 4.10258 18.75 4.76563V6.01562M13.75 11.0156H25C26.3807 11.0156 27.5 12.1349 27.5 13.5156V24.7656C27.5 26.1463 26.3807 27.2656 25 27.2656H13.75C12.3693 27.2656 11.25 26.1463 11.25 24.7656V13.5156C11.25 12.1349 12.3693 11.0156 13.75 11.0156Z" stroke="black" stroke-width="3.22751" stroke-linecap="round" stroke-linejoin="round"/>
</svg>
