<svg width="1863" height="66" viewBox="0 0 1863 66" fill="none" xmlns="http://www.w3.org/2000/svg">
<path d="M1847.83 52.5545C1850.89 36.3838 1826.29 12.9403 1826.29 12.9403C1836.55 31.5288 1826.29 52.9607 1826.29 52.9607C1818.07 44.8754 1812.93 29.5171 1812.93 29.5171C1801.61 39.614 1799.23 56.191 1799.23 56.191L1786.31 41.2389L1781.05 55.3785C1767.69 45.5524 1773.42 10.5031 1773.42 10.5031C1755.47 23.8497 1748.18 50.9296 1748.18 50.9296C1743.87 36.6546 1719.78 23.4435 1719.78 23.4435C1731.51 42.0514 1726.59 54.9723 1726.59 54.9723L1713.24 41.2389L1701.86 55.3785L1690.57 41.2389L1675.16 58.2025C1677.21 25.4746 1648.74 9.3039 1648.74 9.3039C1665.5 29.5171 1644.43 52.9607 1644.43 52.9607C1646.5 43.2891 1632.59 32.6121 1632.59 32.6121C1631.57 39.426 1626.02 45.9473 1616.69 51.3358C1605.4 34.7591 1616.69 16.983 1616.69 16.983C1588.94 27.4862 1583.77 51.3358 1583.77 51.3358C1578.64 34.3529 1593.03 8.49149 1593.03 8.49149C1568.39 18.1629 1552.83 57.0032 1552.83 57.0032L1542.45 40.0202L1529.05 52.2257C1530.99 28.2599 1505.4 15.8418 1505.4 15.8418C1510.08 22.25 1511.61 29.0385 1509.87 35.738C1508.14 42.4374 1503.19 48.8878 1495.36 54.6435C1478.99 47.3705 1479.85 29.5944 1479.85 29.5944C1458.3 38.086 1462.35 55.4559 1462.35 55.4559L1446.97 38.8791L1431.55 55.0497C1429.48 38.8791 1446.97 13.4239 1446.97 13.4239C1422.29 21.9155 1403.89 56.2684 1403.89 56.2684C1403.48 42.6936 1395.02 29.4134 1379.37 17.7954C1390.45 40.8327 1379.37 52.9607 1379.37 52.9607L1375.06 42.4382L1361.49 50.9296L1357.18 36.7513C1349.71 41.5651 1342.82 46.5566 1336.55 51.7034C1326.64 36.3451 1348.48 10.0776 1348.48 10.0776C1312.51 21.3932 1311.47 55.7461 1311.47 55.7461C1311.47 48.0089 1302.25 32.5347 1302.25 32.5347C1301.56 38.564 1297.67 44.4322 1290.92 49.6531C1281.7 39.9815 1281.7 22.9599 1281.7 22.9599C1267.31 33.4824 1269.33 52.8834 1269.33 52.8834C1257.83 35.1653 1257.83 0 1257.83 0C1248.48 9.45863 1244.56 24.7395 1243.01 38.1441L1226.81 52.5739C1229.91 36.4031 1205.27 12.9597 1205.27 12.9597C1215.56 31.5482 1205.27 52.9801 1205.27 52.9801C1197.04 44.8947 1191.91 29.5364 1191.91 29.5364C1180.62 39.6333 1178.21 56.2103 1178.21 56.2103L1165.28 41.2582L1160.03 55.3979C1146.67 45.5718 1152.4 10.5225 1152.4 10.5225C1134.44 23.869 1127.16 50.949 1127.16 50.949C1122.98 36.7513 1098.68 23.4435 1098.68 23.4435C1110.44 42.0514 1105.48 54.9723 1105.48 54.9723L1092.13 41.2389L1080.8 55.3785L1069.51 41.2389L1054.08 58.2025C1056.15 25.4746 1027.67 9.3039 1027.67 9.3039C1044.48 29.5171 1023.36 52.9607 1023.36 52.9607C1025.43 43.2891 1011.56 32.6121 1011.56 32.6121C1010.51 39.4264 1004.96 45.946 995.616 51.3358C984.328 34.7591 995.616 16.983 995.616 16.983C967.87 27.4862 962.743 51.3358 962.743 51.3358C957.572 34.3529 971.963 8.49149 971.963 8.49149C947.318 18.1629 931.765 57.0032 931.765 57.0032L921.64 40.0202L908.026 52.2257C909.964 28.2599 884.415 15.8418 884.415 15.8418C889.087 22.2517 890.604 29.0406 888.863 35.7395C887.123 42.4387 882.166 48.8883 874.333 54.6435C857.96 47.3705 858.822 29.5944 858.822 29.5944C837.28 38.086 841.373 55.4559 841.373 55.4559L825.949 38.8791L810.524 55.0497C808.457 38.8791 825.949 13.4239 825.949 13.4239C801.261 21.9155 782.864 56.2684 782.864 56.2684C782.442 42.6919 773.964 29.4114 758.305 17.7954C769.421 40.8327 758.305 52.9607 758.305 52.9607L753.997 42.4382L740.641 50.9296L735.945 36.7513C728.439 41.5769 721.522 46.5811 715.22 51.7421C705.355 36.3838 727.156 10.1163 727.156 10.1163C691.179 21.4319 690.188 55.7848 690.188 55.7848C690.188 48.0476 680.925 32.5734 680.925 32.5734C680.232 38.6027 676.348 44.4709 669.594 49.6918C660.374 40.0202 660.374 22.9985 660.374 22.9985C645.983 33.5211 648.009 52.9221 648.009 52.9221C636.807 35.1653 636.807 0 636.807 0C627.112 9.84549 623.235 25.9967 621.812 39.7687L605.786 52.5739C608.887 36.4031 584.244 12.9597 584.244 12.9597C594.54 31.5482 584.244 52.9801 584.244 52.9801C576.013 44.8947 570.887 29.5364 570.887 29.5364C559.598 39.6333 557.185 56.2103 557.185 56.2103L544.26 41.2582L539.047 55.3979C525.648 45.5718 531.378 10.5225 531.378 10.5225C513.454 23.869 506.129 50.949 506.129 50.949C502.037 36.6739 477.781 23.4628 477.781 23.4628C489.499 42.0707 484.544 54.9916 484.544 54.9916L471.188 41.2582L459.9 55.3979L448.568 41.2582L433.144 58.2219C435.17 25.4746 406.734 9.3039 406.734 9.3039C423.493 29.5171 402.424 52.9607 402.424 52.9607C404.45 43.2891 390.577 32.6121 390.577 32.6121C389.533 39.4264 383.981 45.946 374.635 51.3358C363.346 34.7591 374.635 16.983 374.635 16.983C346.888 27.4862 341.761 51.3358 341.761 51.3358C336.505 34.3529 350.896 8.49149 350.896 8.49149C326.208 18.1629 310.654 57.0032 310.654 57.0032L300.529 40.0202L287.044 52.2257C288.939 28.2599 263.391 15.8418 263.391 15.8418C268.074 22.2511 269.598 29.0406 267.857 35.7406C266.116 42.4404 261.151 48.8902 253.308 54.6435C236.936 47.3705 237.798 29.5944 237.798 29.5944C216.256 38.086 220.564 55.4559 220.564 55.4559L205.139 38.8791L189.585 54.9723C187.431 38.8018 204.924 13.3465 204.924 13.3465C180.236 21.8381 161.84 56.191 161.84 56.191C161.399 42.6425 152.938 29.3908 137.324 17.7954C148.44 40.8327 137.324 52.9607 137.324 52.9607L133.015 42.4382L119.659 50.9296L114.92 36.7513C107.447 41.5651 100.558 46.5566 94.2823 51.7034C84.4158 36.3451 106.26 10.0776 106.26 10.0776C70.284 21.3932 69.25 55.7461 69.25 55.7461C69.25 48.0089 59.9868 32.5347 59.9868 32.5347C59.2981 38.5616 55.4291 44.4289 48.6985 49.6531C39.4353 39.9815 39.4353 22.9599 39.4353 22.9599C25.045 33.5597 27.1131 52.9607 27.1131 52.9607C15.7817 35.1653 15.7817 0 15.7817 0C-3.73567 19.807 0.357381 65.2047 0.357381 65.2047H1841.27C1853.27 65.2047 1863 55.4736 1863 43.4698V39.208L1847.83 52.5545Z" fill="#E5FFBD"/>
</svg>
