<svg width="1030" height="37" viewBox="0 0 1030 37" fill="none" xmlns="http://www.w3.org/2000/svg">
<path d="M1020.75 29.0315C1022.44 20.0987 1008.86 7.14834 1008.86 7.14834C1014.53 17.4168 1008.86 29.2559 1008.86 29.2559C1004.31 24.7895 1001.48 16.3055 1001.48 16.3055C995.222 21.8831 993.907 31.0403 993.907 31.0403L986.77 22.7807L983.864 30.5915C976.488 25.1635 979.652 5.80202 979.652 5.80202C969.734 13.1748 965.708 28.1339 965.708 28.1339C963.326 20.2483 950.022 12.9504 950.022 12.9504C956.501 23.2295 953.781 30.3671 953.781 30.3671L946.405 22.7807L940.122 30.5915L933.883 22.7807L925.369 32.1515C926.506 14.0724 910.776 5.13955 910.776 5.13955C920.037 16.3055 908.394 29.2559 908.394 29.2559C909.541 23.9133 901.853 18.0152 901.853 18.0152C901.294 21.7792 898.227 25.3817 893.073 28.3583C886.833 19.2012 893.073 9.38153 893.073 9.38153C877.742 15.1836 874.885 28.3583 874.885 28.3583C872.053 18.9768 880.002 4.69077 880.002 4.69077C866.388 10.0333 857.797 31.489 857.797 31.489L852.061 22.1075L844.659 28.8499C845.73 15.611 831.592 8.75112 831.592 8.75112C834.18 12.2911 835.024 16.0411 834.066 19.742C833.109 23.4427 830.373 27.006 826.047 30.1855C817.003 26.1678 817.479 16.3482 817.479 16.3482C805.579 21.039 807.815 30.6343 807.815 30.6343L799.319 21.4771L790.798 30.4099C789.656 21.4771 799.319 7.41548 799.319 7.41548C785.682 12.1063 775.519 31.0831 775.519 31.0831C775.293 23.5843 770.618 16.2482 761.976 9.83031C768.093 22.5563 761.976 29.2559 761.976 29.2559L759.596 23.4432L752.099 28.1339L749.719 20.3017C745.591 22.9609 741.786 25.7182 738.319 28.5613C732.845 20.0773 744.911 5.56695 744.911 5.56695C725.038 11.8178 724.467 30.7946 724.467 30.7946C724.467 26.5205 719.374 17.9724 719.374 17.9724C718.991 21.303 716.844 24.5447 713.115 27.4288C708.021 22.0861 708.021 12.6832 708.021 12.6832C700.072 18.4959 701.19 29.2132 701.19 29.2132C694.835 19.4256 694.835 0 694.835 0C689.671 5.22502 687.505 13.6663 686.649 21.0711L677.699 29.0422C679.413 20.1094 665.799 7.15903 665.799 7.15903C671.487 17.4275 665.799 29.2666 665.799 29.2666C661.253 24.8002 658.421 16.3161 658.421 16.3161C652.185 21.8938 650.853 31.051 650.853 31.051L643.712 22.7914L640.808 30.6022C633.43 25.1742 636.596 5.8127 636.596 5.8127C626.672 13.1854 622.649 28.1446 622.649 28.1446C620.34 20.3017 606.917 12.9504 606.917 12.9504C613.415 23.2295 610.677 30.3671 610.677 30.3671L603.299 22.7807L597.04 30.5915L590.804 22.7807L582.284 32.1515C583.426 14.0724 567.694 5.13955 567.694 5.13955C576.976 16.3055 565.314 29.2559 565.314 29.2559C566.456 23.9133 558.792 18.0152 558.792 18.0152C558.215 21.7795 555.149 25.3809 549.986 28.3583C543.751 19.2012 549.986 9.38153 549.986 9.38153C534.659 15.1836 531.827 28.3583 531.827 28.3583C528.97 18.9768 536.92 4.69077 536.92 4.69077C523.306 10.0333 514.714 31.489 514.714 31.489L509.121 22.1075L501.6 28.8499C502.671 15.611 488.558 8.75112 488.558 8.75112C491.138 12.292 491.977 16.0423 491.015 19.7428C490.053 23.4434 487.315 27.0063 482.988 30.1855C473.944 26.1678 474.42 16.3482 474.42 16.3482C462.52 21.039 464.781 30.6343 464.781 30.6343L456.261 21.4771L447.74 30.4099C446.598 21.4771 456.261 7.41548 456.261 7.41548C442.623 12.1063 432.46 31.0831 432.46 31.0831C432.227 23.5833 427.544 16.2471 418.894 9.83031C425.034 22.5563 418.894 29.2559 418.894 29.2559L416.514 23.4432L409.136 28.1339L406.541 20.3017C402.396 22.9674 398.574 25.7318 395.093 28.5827C389.643 20.0987 401.686 5.58833 401.686 5.58833C381.813 11.8391 381.265 30.8159 381.265 30.8159C381.265 26.5418 376.148 17.9938 376.148 17.9938C375.765 21.3244 373.62 24.5661 369.889 27.4501C364.796 22.1075 364.796 12.7046 364.796 12.7046C356.846 18.5173 357.965 29.2345 357.965 29.2345C351.777 19.4256 351.777 0 351.777 0C346.421 5.43872 344.28 14.3608 343.494 21.9686L334.641 29.0422C336.354 20.1094 322.741 7.15903 322.741 7.15903C328.428 17.4275 322.741 29.2666 322.741 29.2666C318.194 24.8002 315.363 16.3161 315.363 16.3161C309.126 21.8938 307.793 31.051 307.793 31.051L300.653 22.7914L297.774 30.6022C290.372 25.1742 293.537 5.8127 293.537 5.8127C283.636 13.1854 279.59 28.1446 279.59 28.1446C277.329 20.259 263.93 12.961 263.93 12.961C270.403 23.2402 267.666 30.3778 267.666 30.3778L260.288 22.7914L254.053 30.6022L247.792 22.7914L239.272 32.1622C240.391 14.0724 224.683 5.13955 224.683 5.13955C233.941 16.3055 222.302 29.2559 222.302 29.2559C223.421 23.9133 215.758 18.0152 215.758 18.0152C215.181 21.7795 212.114 25.3809 206.951 28.3583C200.715 19.2012 206.951 9.38153 206.951 9.38153C191.624 15.1836 188.791 28.3583 188.791 28.3583C185.888 18.9768 193.837 4.69077 193.837 4.69077C180.2 10.0333 171.608 31.489 171.608 31.489L166.014 22.1075L158.565 28.8499C159.612 15.611 145.499 8.75112 145.499 8.75112C148.086 12.2917 148.928 16.0423 147.966 19.7434C147.005 23.4444 144.262 27.0073 139.93 30.1855C130.885 26.1678 131.361 16.3482 131.361 16.3482C119.461 21.039 121.841 30.6343 121.841 30.6343L113.32 21.4771L104.728 30.3671C103.538 21.4344 113.201 7.37273 113.201 7.37273C99.564 12.0635 89.4015 31.0403 89.4015 31.0403C89.158 23.5561 84.4843 16.2357 75.8588 9.83031C81.9994 22.5563 75.8588 29.2559 75.8588 29.2559L73.4788 23.4432L66.1007 28.1339L63.4826 20.3017C59.3546 22.9609 55.549 25.7182 52.0823 28.5613C46.6319 20.0773 58.6988 5.56695 58.6988 5.56695C38.8254 11.8178 38.2542 30.7946 38.2542 30.7946C38.2542 26.5205 33.1372 17.9724 33.1372 17.9724C32.7567 21.3017 30.6194 24.5429 26.9014 27.4288C21.7843 22.0861 21.7843 12.6832 21.7843 12.6832C13.835 18.5387 14.9775 29.2559 14.9775 29.2559C8.71796 19.4256 8.71796 0 8.71796 0C-2.06361 10.9416 0.19742 36.0196 0.19742 36.0196H1017.13C1023.76 36.0196 1029.14 30.644 1029.14 24.013V21.6588L1020.75 29.0315Z" fill="#75C102"/>
</svg>
