<svg width="1031" height="37" viewBox="0 0 1031 37" fill="none" xmlns="http://www.w3.org/2000/svg">
<path d="M1021.66 7.947C1023.35 16.8798 1009.76 29.8302 1009.76 29.8302C1015.43 19.5617 1009.76 7.7226 1009.76 7.7226C1005.22 12.189 1002.38 20.6731 1002.38 20.6731C996.127 15.0954 994.812 5.93819 994.812 5.93819L987.676 14.1978L984.77 6.38699C977.393 11.815 980.557 31.1765 980.557 31.1765C970.639 23.8038 966.613 8.8446 966.613 8.8446C964.231 16.7302 950.927 24.0282 950.927 24.0282C957.406 13.749 954.686 6.61139 954.686 6.61139L947.31 14.1978L941.027 6.38699L934.788 14.1978L926.274 4.82698C927.412 22.9062 911.681 31.839 911.681 31.839C920.942 20.6731 909.3 7.7226 909.3 7.7226C910.446 13.0653 902.759 18.9633 902.759 18.9633C902.199 15.1993 899.133 11.5969 893.978 8.6202C887.738 17.7773 893.978 27.597 893.978 27.597C878.647 21.795 875.79 8.6202 875.79 8.6202C872.958 18.0017 880.908 32.2877 880.908 32.2877C867.293 26.9452 858.702 5.4895 858.702 5.4895L852.966 14.871L845.564 8.12866C846.635 21.3675 832.497 28.2274 832.497 28.2274C835.085 24.6874 835.93 20.9374 834.972 17.2366C834.015 13.5358 831.278 9.9725 826.952 6.79305C817.908 10.8107 818.384 20.6303 818.384 20.6303C806.484 15.9395 808.721 6.34425 808.721 6.34425L800.225 15.5014L791.704 6.56865C790.562 15.5014 800.225 29.563 800.225 29.563C786.587 24.8722 776.424 5.89544 776.424 5.89544C776.198 13.3942 771.523 20.7303 762.882 27.1482C768.999 14.4222 762.882 7.7226 762.882 7.7226L760.502 13.5353L753.004 8.8446L750.624 16.6768C746.496 14.0176 742.691 11.2603 739.224 8.41717C733.75 16.9012 745.816 31.4116 745.816 31.4116C725.944 25.1608 725.372 6.18396 725.372 6.18396C725.372 10.458 720.279 19.0061 720.279 19.0061C719.896 15.6755 717.75 12.4338 714.02 9.54975C708.927 14.8924 708.927 24.2953 708.927 24.2953C700.977 18.4826 702.095 7.76534 702.095 7.76534C695.741 17.5529 695.741 36.9785 695.741 36.9785C690.576 31.7535 688.411 23.3122 687.554 15.9074L678.604 7.93631C680.318 16.8692 666.704 29.8195 666.704 29.8195C672.392 19.5511 666.704 7.71191 666.704 7.71191C662.159 12.1783 659.326 20.6624 659.326 20.6624C653.09 15.0848 651.758 5.9275 651.758 5.9275L644.617 14.1871L641.714 6.3763C634.336 11.8043 637.501 31.1658 637.501 31.1658C627.577 23.7931 623.555 8.83392 623.555 8.83392C621.246 16.6768 607.822 24.0282 607.822 24.0282C614.32 13.749 611.583 6.61139 611.583 6.61139L604.204 14.1978L597.945 6.38699L591.709 14.1978L583.189 4.82698C584.331 22.9062 568.599 31.839 568.599 31.839C577.882 20.6731 566.219 7.7226 566.219 7.7226C567.362 13.0653 559.697 18.9633 559.697 18.9633C559.121 15.1991 556.055 11.5976 550.891 8.6202C544.656 17.7773 550.891 27.597 550.891 27.597C535.564 21.795 532.732 8.6202 532.732 8.6202C529.876 18.0017 537.825 32.2877 537.825 32.2877C524.211 26.9452 515.62 5.4895 515.62 5.4895L510.026 14.871L502.506 8.12866C503.577 21.3675 489.463 28.2274 489.463 28.2274C492.044 24.6865 492.882 20.9362 491.92 17.2357C490.959 13.5351 488.221 9.97226 483.893 6.79305C474.849 10.8107 475.325 20.6303 475.325 20.6303C463.425 15.9395 465.686 6.34425 465.686 6.34425L457.166 15.5014L448.645 6.56865C447.503 15.5014 457.166 29.563 457.166 29.563C443.528 24.8722 433.365 5.89544 433.365 5.89544C433.132 13.3952 428.449 20.7314 419.799 27.1482C425.939 14.4222 419.799 7.7226 419.799 7.7226L417.419 13.5353L410.041 8.8446L407.447 16.6768C403.301 14.0111 399.479 11.2467 395.998 8.3958C390.549 16.8798 402.592 31.3902 402.592 31.3902C382.718 25.1394 382.171 6.16259 382.171 6.16259C382.171 10.4367 377.053 18.9847 377.053 18.9847C376.67 15.6541 374.525 12.4125 370.794 9.52838C365.701 14.871 365.701 24.2739 365.701 24.2739C357.751 18.4612 358.87 7.74397 358.87 7.74397C352.682 17.5529 352.682 36.9785 352.682 36.9785C347.327 31.5398 345.185 22.6178 344.399 15.01L335.546 7.93631C337.259 16.8692 323.646 29.8195 323.646 29.8195C329.334 19.5511 323.646 7.71191 323.646 7.71191C319.099 12.1783 316.268 20.6624 316.268 20.6624C310.032 15.0848 308.699 5.9275 308.699 5.9275L301.559 14.1871L298.679 6.3763C291.277 11.8043 294.443 31.1658 294.443 31.1658C284.541 23.7931 280.495 8.83392 280.495 8.83392C278.234 16.7196 264.835 24.0175 264.835 24.0175C271.308 13.7383 268.571 6.60071 268.571 6.60071L261.193 14.1871L254.958 6.3763L248.698 14.1871L240.178 4.8163C241.296 22.9062 225.588 31.839 225.588 31.839C234.846 20.6731 223.207 7.7226 223.207 7.7226C224.326 13.0653 216.663 18.9633 216.663 18.9633C216.086 15.1991 213.019 11.5976 207.857 8.6202C201.62 17.7773 207.857 27.597 207.857 27.597C192.529 21.795 189.697 8.6202 189.697 8.6202C186.793 18.0017 194.743 32.2877 194.743 32.2877C181.105 26.9452 172.513 5.4895 172.513 5.4895L166.92 14.871L159.47 8.12866C160.517 21.3675 146.404 28.2274 146.404 28.2274C148.991 24.6868 149.833 20.9362 148.872 17.2351C147.91 13.5341 145.167 9.97118 140.835 6.79305C131.79 10.8107 132.267 20.6303 132.267 20.6303C120.367 15.9395 122.747 6.34425 122.747 6.34425L114.226 15.5014L105.634 6.61139C104.444 15.5441 114.107 29.6058 114.107 29.6058C100.469 24.915 90.3068 5.93819 90.3068 5.93819C90.0633 13.4224 85.3896 20.7428 76.7641 27.1482C82.9046 14.4222 76.7641 7.7226 76.7641 7.7226L74.384 13.5353L67.006 8.8446L64.3879 16.6768C60.2599 14.0176 56.4542 11.2603 52.9875 8.41717C47.5372 16.9012 59.604 31.4116 59.604 31.4116C39.7307 25.1608 39.1595 6.18396 39.1595 6.18396C39.1595 10.458 34.0425 19.0061 34.0425 19.0061C33.662 15.6768 31.5247 12.4356 27.8067 9.54975C22.6896 14.8924 22.6896 24.2953 22.6896 24.2953C14.7403 18.4399 15.8828 7.7226 15.8828 7.7226C9.62323 17.5529 9.62323 36.9785 9.62323 36.9785C-1.15834 26.037 1.10269 0.958963 1.10269 0.958963H1018.03C1024.67 0.958963 1030.04 6.33447 1030.04 12.9655V15.3197L1021.66 7.947Z" fill="#75C102"/>
</svg>
