<svg width="34" height="41" viewBox="0 0 34 41" fill="none" xmlns="http://www.w3.org/2000/svg">
<path d="M19.2252 20.4865C19.2252 26.2186 15.404 30.8657 10.6933 30.8657C5.98253 30.8657 2.16141 26.2202 2.16141 20.4865C2.16141 14.7529 5.98116 10.1074 10.6933 10.1074C15.4054 10.1074 19.2252 14.7545 19.2252 20.4865ZM28.582 20.4865C28.582 25.883 26.6708 30.2559 24.3168 30.2559C21.96 30.2559 20.0502 25.8813 20.0502 20.4865C20.0502 15.0918 21.9614 10.7172 24.3168 10.7172C26.6722 10.7172 28.582 15.0918 28.582 20.4865ZM32.41 20.4865C32.41 25.3214 31.7377 29.2408 30.9099 29.2408C30.0808 29.2408 29.4098 25.3197 29.4098 20.4865C29.4098 15.6534 30.0808 11.7323 30.9099 11.7323C31.739 11.7323 32.4114 15.6534 32.4114 20.4882" fill="black"/>
</svg>
