<svg width="36" height="30" viewBox="0 0 36 30" fill="none" xmlns="http://www.w3.org/2000/svg">
<path fill-rule="evenodd" clip-rule="evenodd" d="M27.0233 28.9861C27.4939 29.3193 28.1005 29.4026 28.6413 29.198C29.1822 28.9919 29.5798 28.53 29.6996 27.9702C30.9698 22.0007 34.051 6.89124 35.2072 1.46109C35.2949 1.05182 35.1488 0.626466 34.8272 0.353131C34.5056 0.0797963 34.0598 0.000866313 33.6622 0.148496C27.5334 2.41703 8.65866 9.49889 0.943939 12.3536C0.454274 12.5348 0.135626 13.0055 0.151705 13.5214C0.169245 14.0389 0.517126 14.4876 1.01848 14.6382C4.47825 15.673 9.0197 17.1128 9.0197 17.1128C9.0197 17.1128 11.1421 23.5223 12.2486 26.7818C12.3874 27.1911 12.7075 27.5127 13.13 27.6238C13.5509 27.7334 14.0011 27.6179 14.3154 27.3212C16.0928 25.6432 18.8408 23.0487 18.8408 23.0487C18.8408 23.0487 24.0619 26.8768 27.0233 28.9861ZM10.9301 16.303L13.3843 24.3978L13.9295 19.2717C13.9295 19.2717 23.4114 10.7194 28.8168 5.84468C28.9746 5.70143 28.9965 5.46172 28.865 5.29362C28.7349 5.12553 28.4952 5.08606 28.3154 5.20007C22.0506 9.2007 10.9301 16.303 10.9301 16.303Z" fill="#060205"/>
</svg>
