<svg width="391" height="356" viewBox="0 0 391 356" fill="none" xmlns="http://www.w3.org/2000/svg">
<path d="M384.01 161.12C368.93 147.28 362.4 126.67 361.51 106.81C361.2 98.72 362.43 91.05 365.17 83.79C354.6 79.91 344.93 73.72 336.38 65.88C324 54.52 317.4 38.61 314.93 22.29C306.43 25.43 297.44 27.15 288.64 27.15C268.03 27.15 249.71 18.6 234.76 5.03998H74.63C36.18 5.03998 5 36.21 5 74.67V281.21C5 319.66 36.17 350.84 74.63 350.84H316.38C354.83 350.84 386.01 319.67 386.01 281.21V162.89C385.34 162.31 384.68 161.73 384.02 161.13L384.01 161.12Z" fill="#4359AA" stroke="white" stroke-width="9" stroke-miterlimit="10"/>
</svg>
