<svg width="391" height="355" viewBox="0 0 391 355" fill="none" xmlns="http://www.w3.org/2000/svg">
<path d="M316.37 4.53002H113.94C111.34 8.51002 108.24 12.19 104.61 15.56C101.9 18.27 98.93 20.77 95.77 23.05C96.79 28.12 97.4 33.26 97.63 38.36C98.03 48.93 95.82 58.8 91.02 67.95C87.92 77.47 82.63 85.71 75.14 92.67C63.95 103.86 48.39 111.58 32.49 114.19C31.7 116.2 30.81 118.17 29.79 120.11C26.69 129.63 21.4 137.87 13.91 144.83C11.18 147.56 8.19001 150.07 5.01001 152.36V280.71C5.01001 319.16 36.18 350.34 74.64 350.34H316.39C354.84 350.34 386.02 319.17 386.02 280.71V74.15C386.02 35.7 354.85 4.52002 316.39 4.52002L316.37 4.53002Z" fill="#0D111E" stroke="white" stroke-width="9" stroke-miterlimit="10"/>
</svg>
