<svg width="259" height="331" viewBox="0 0 259 331" fill="none" xmlns="http://www.w3.org/2000/svg">
<path d="M107.86 239.16C147.299 239.16 179.27 207.189 179.27 167.75C179.27 128.311 147.299 96.34 107.86 96.34C68.4213 96.34 36.45 128.311 36.45 167.75C36.45 207.189 68.4213 239.16 107.86 239.16Z" fill="url(#paint0_linear_725_1156)" stroke="white" stroke-width="5" stroke-miterlimit="10"/>
<path d="M167.66 187.9C167.66 187.9 179.21 184.15 190.91 200.94C200.62 214.89 196.2 229.03 192.18 230.43C192.18 230.43 178.56 230.05 175.07 213.51C171.5 196.61 175.91 193.98 167.67 187.9H167.66Z" fill="#3461D5"/>
<g style="mix-blend-mode:multiply" opacity="0.3">
<path d="M190.91 200.94C189.42 198.81 187.94 197 186.48 195.48C186.46 195.46 186.44 195.44 186.42 195.42C189.81 200.39 192.34 206.53 190.99 207.51C188.49 209.32 179.61 206.53 173.58 203.34C173.79 206.12 174.15 209.11 175.07 213.5C178.56 230.04 192.18 230.42 192.18 230.42C196.2 229.02 200.62 214.88 190.91 200.93V200.94Z" fill="#3461D5"/>
</g>
<g style="mix-blend-mode:overlay" opacity="0.5">
<path d="M167.66 187.9C172.95 191.8 173.03 194.28 173.35 200.02C173.35 200.02 174.18 190.59 169.05 188.23C169.05 188.23 173.95 187.82 180.01 190.29C172.96 186.19 167.67 187.9 167.67 187.9H167.66Z" fill="#3461D5"/>
</g>
<g style="mix-blend-mode:multiply" opacity="0.3">
<path d="M180.18 191.23C180.84 191.75 181.15 192.47 180.86 192.84C180.57 193.21 179.8 193.08 179.13 192.56C178.47 192.04 178.16 191.32 178.45 190.95C178.74 190.58 179.51 190.71 180.18 191.23ZM181.21 193.11C180.99 193.39 181.22 193.95 181.74 194.35C182.25 194.75 182.85 194.85 183.07 194.56C183.29 194.28 183.06 193.72 182.54 193.32C182.03 192.92 181.43 192.82 181.21 193.11ZM179.73 193.64C179.56 193.86 179.73 194.29 180.14 194.6C180.54 194.91 181 194.98 181.17 194.77C181.34 194.55 181.17 194.12 180.76 193.81C180.36 193.5 179.9 193.43 179.73 193.64ZM177.72 192.4C177.57 192.6 177.72 192.98 178.08 193.25C178.43 193.53 178.84 193.59 179 193.4C179.15 193.2 179 192.82 178.64 192.55C178.29 192.27 177.88 192.21 177.72 192.4ZM177.53 191.43C177.45 191.53 177.53 191.72 177.71 191.86C177.89 192 178.09 192.03 178.17 191.93C178.25 191.83 178.17 191.64 177.99 191.5C177.81 191.36 177.61 191.33 177.53 191.43ZM178.63 193.96C178.53 194.09 178.63 194.34 178.87 194.52C179.1 194.7 179.37 194.74 179.47 194.62C179.57 194.49 179.47 194.24 179.23 194.06C179 193.88 178.73 193.84 178.63 193.96Z" fill="#3461D5"/>
</g>
<path d="M216.61 218.18C216.49 195.95 203.32 195.24 203.32 195.24C204.61 206.53 197.09 211 197.09 211C197.09 211 192.03 212.18 176.15 205.12C160.27 198.06 156.51 179.24 168.86 173.12C180.19 167.51 183.35 170.06 183.97 170.79C184.01 170.85 184.05 170.9 184.09 170.96C193.05 183.27 206.47 177.52 206.47 177.52C206.47 177.52 193.94 173.01 190.3 164.07C185.65 152.64 191.77 139.91 191.77 139.91C191.77 139.91 177.84 148.24 180 161.25V161.75C179.34 166.05 174.38 166.42 169.27 168.08C166.59 168.95 147.35 171.39 146.38 195.57C145.41 219.75 167.75 261.06 241.12 246.97C239.28 229.55 216.61 218.16 216.61 218.16V218.18Z" fill="#3461D5"/>
<g style="mix-blend-mode:overlay" opacity="0.3">
<path d="M147.57 191.78C147.68 188.99 148.04 186.49 148.58 184.25C147.36 187.37 146.55 191.11 146.37 195.59C145.4 219.77 167.74 261.08 241.11 246.99C167.65 250.06 146.6 215.95 147.57 191.77V191.78Z" fill="#3461D5"/>
</g>
<g style="mix-blend-mode:multiply" opacity="0.3">
<path d="M187.22 244.17C191.98 238.18 191.38 230.43 191.38 230.43C175.68 234.7 167.98 238.08 176.18 242.14C190.55 249.25 210.89 252.4 238.78 247.42C238.78 247.42 207.34 251.34 187.22 244.17Z" fill="#3461D5"/>
</g>
<g style="mix-blend-mode:overlay" opacity="0.25">
<path d="M216.61 218.18C216.49 195.95 203.32 195.24 203.32 195.24C203.32 195.24 215.62 198.79 213.95 217.05C213.95 217.05 206.7 215.68 200.75 215.8C200.75 215.8 231.03 218.12 241.12 246.99C239.28 229.57 216.61 218.18 216.61 218.18Z" fill="#3461D5"/>
</g>
<g style="mix-blend-mode:overlay" opacity="0.5">
<path d="M174.89 166.45C174.89 166.45 179.38 165.77 180.61 163.03C181.84 160.29 179.48 157.19 182.19 151.33C185.05 145.14 191.77 139.92 191.77 139.92C191.77 139.92 177.84 148.25 180 161.26V161.76C179.59 164.39 177.57 165.55 174.89 166.44V166.45Z" fill="#3461D5"/>
</g>
<g style="mix-blend-mode:multiply" opacity="0.3">
<path d="M188.73 174.27C183.99 170.9 186.13 167.62 179.04 168.7C170.96 169.94 160.74 173.55 160.38 184.25C160.02 194.95 169.03 200.55 169.03 200.55C159.44 191.95 158.62 178.19 168.84 173.13C180.17 167.52 183.33 170.07 183.95 170.8C183.99 170.86 184.03 170.91 184.07 170.97C193.03 183.28 206.45 177.53 206.45 177.53C201.47 179.35 193.45 177.64 188.71 174.27H188.73Z" fill="#3461D5"/>
</g>
<path d="M143.68 242.03C143.68 242.03 148.93 252.98 169.16 249.86C185.96 247.27 193.15 234.31 191.38 230.44C191.38 230.44 181.7 220.84 167.32 229.72C152.62 238.8 153.76 243.8 143.67 242.03H143.68Z" fill="#3461D5"/>
<g style="mix-blend-mode:multiply" opacity="0.3">
<path d="M169.16 249.86C185.96 247.27 193.15 234.31 191.38 230.44C191.38 230.44 188.11 242.94 167.66 247.78C152.48 251.37 143.68 242.03 143.68 242.03C143.68 242.03 148.93 252.98 169.16 249.86Z" fill="#3461D5"/>
</g>
<g style="mix-blend-mode:overlay" opacity="0.25">
<path d="M153.95 240.82C159.63 236.22 170.4 226.33 180.53 225.98C176.85 225.75 172.38 226.59 167.33 229.71C152.63 238.79 153.77 243.79 143.68 242.02C143.68 242.02 148.27 245.42 153.95 240.82Z" fill="#3461D5"/>
</g>
<g style="mix-blend-mode:multiply" opacity="0.3">
<path d="M170.54 233.14C169.59 233.82 168.52 233.95 168.14 233.42C167.76 232.89 168.22 231.92 169.17 231.23C170.12 230.55 171.19 230.42 171.57 230.95C171.95 231.48 171.49 232.45 170.54 233.14ZM167.83 234.32C167.54 233.91 166.71 234.01 165.98 234.54C165.25 235.07 164.89 235.82 165.18 236.23C165.47 236.64 166.3 236.54 167.03 236.01C167.76 235.48 168.12 234.73 167.83 234.32ZM167.23 232.19C167 231.88 166.36 231.95 165.8 232.36C165.23 232.77 164.96 233.35 165.18 233.66C165.41 233.97 166.05 233.9 166.61 233.49C167.18 233.08 167.45 232.5 167.23 232.19ZM170.26 234.38C170.06 234.1 169.49 234.17 168.99 234.53C168.49 234.89 168.24 235.41 168.44 235.69C168.64 235.97 169.21 235.9 169.71 235.54C170.21 235.18 170.46 234.66 170.26 234.38ZM172.35 233.2C172.19 232.98 171.75 233.04 171.36 233.32C170.97 233.6 170.78 234.01 170.93 234.23C171.09 234.45 171.53 234.39 171.92 234.11C172.31 233.83 172.5 233.42 172.35 233.2ZM165.18 234.39C165.08 234.25 164.79 234.28 164.54 234.47C164.29 234.65 164.16 234.91 164.27 235.05C164.38 235.19 164.66 235.16 164.91 234.97C165.16 234.79 165.29 234.53 165.18 234.39Z" fill="#3461D5"/>
</g>
<defs>
<linearGradient id="paint0_linear_725_1156" x1="36.45" y1="167.75" x2="179.27" y2="167.75" gradientUnits="userSpaceOnUse">
<stop stop-color="#0071BC"/>
<stop offset="1" stop-color="#22B573"/>
</linearGradient>
</defs>
</svg>
