<svg width="371" height="358" viewBox="0 0 371 358" fill="none" xmlns="http://www.w3.org/2000/svg">
<path d="M174.53 262.72C231.283 262.72 277.29 216.713 277.29 159.96C277.29 103.207 231.283 57.2 174.53 57.2C117.777 57.2 71.77 103.207 71.77 159.96C71.77 216.713 117.777 262.72 174.53 262.72Z" fill="url(#paint0_linear_725_1134)" stroke="white" stroke-width="5" stroke-miterlimit="10"/>
<path d="M256.66 201.9C256.66 201.9 268.21 198.15 279.91 214.94C289.62 228.89 285.2 243.03 281.18 244.43C281.18 244.43 267.56 244.05 264.07 227.51C260.5 210.61 264.91 207.98 256.67 201.9H256.66Z" fill="#3461D5"/>
<g style="mix-blend-mode:multiply" opacity="0.3">
<path d="M279.91 214.94C278.42 212.81 276.94 211 275.48 209.48C275.46 209.46 275.44 209.44 275.42 209.42C278.81 214.39 281.34 220.53 279.99 221.51C277.49 223.32 268.61 220.53 262.58 217.34C262.79 220.12 263.15 223.11 264.07 227.5C267.56 244.04 281.18 244.42 281.18 244.42C285.2 243.02 289.62 228.88 279.91 214.93V214.94Z" fill="#3461D5"/>
</g>
<g style="mix-blend-mode:overlay" opacity="0.5">
<path d="M256.66 201.9C261.95 205.8 262.03 208.28 262.35 214.02C262.35 214.02 263.18 204.59 258.05 202.23C258.05 202.23 262.95 201.82 269.01 204.29C261.96 200.19 256.67 201.9 256.67 201.9H256.66Z" fill="#3461D5"/>
</g>
<g style="mix-blend-mode:multiply" opacity="0.3">
<path d="M269.18 205.23C269.84 205.75 270.15 206.47 269.86 206.84C269.57 207.21 268.8 207.08 268.13 206.56C267.47 206.04 267.16 205.32 267.45 204.95C267.74 204.58 268.51 204.71 269.18 205.23ZM270.21 207.11C269.99 207.39 270.22 207.95 270.74 208.35C271.25 208.75 271.85 208.85 272.07 208.56C272.29 208.28 272.06 207.72 271.54 207.32C271.03 206.92 270.43 206.82 270.21 207.11ZM268.73 207.64C268.56 207.86 268.73 208.29 269.14 208.6C269.54 208.91 270 208.98 270.17 208.77C270.34 208.55 270.17 208.12 269.76 207.81C269.36 207.5 268.9 207.43 268.73 207.64ZM266.72 206.4C266.57 206.6 266.72 206.98 267.08 207.25C267.43 207.53 267.84 207.59 268 207.4C268.15 207.2 268 206.82 267.64 206.55C267.29 206.27 266.88 206.21 266.72 206.4ZM266.53 205.43C266.45 205.53 266.53 205.72 266.71 205.86C266.89 206 267.09 206.03 267.17 205.93C267.25 205.83 267.17 205.64 266.99 205.5C266.81 205.36 266.61 205.33 266.53 205.43ZM267.63 207.96C267.53 208.09 267.63 208.34 267.87 208.52C268.1 208.7 268.37 208.74 268.47 208.62C268.57 208.49 268.47 208.24 268.23 208.06C268 207.88 267.73 207.84 267.63 207.96Z" fill="#3461D5"/>
</g>
<path d="M305.61 232.18C305.49 209.95 292.32 209.24 292.32 209.24C293.61 220.53 286.09 225 286.09 225C286.09 225 281.03 226.18 265.15 219.12C249.27 212.06 245.51 193.24 257.86 187.12C269.19 181.51 272.35 184.06 272.97 184.79C273.01 184.85 273.05 184.9 273.09 184.96C282.05 197.27 295.47 191.52 295.47 191.52C295.47 191.52 282.94 187.01 279.3 178.07C274.65 166.64 280.77 153.91 280.77 153.91C280.77 153.91 266.84 162.24 269 175.25V175.75C268.34 180.05 263.38 180.42 258.27 182.08C255.59 182.95 236.35 185.39 235.38 209.57C234.41 233.75 256.75 275.06 330.12 260.97C328.28 243.55 305.61 232.16 305.61 232.16V232.18Z" fill="#3461D5"/>
<g style="mix-blend-mode:overlay" opacity="0.3">
<path d="M236.57 205.78C236.68 202.99 237.04 200.49 237.58 198.25C236.36 201.37 235.55 205.11 235.37 209.59C234.4 233.77 256.74 275.08 330.11 260.99C256.65 264.06 235.6 229.95 236.57 205.77V205.78Z" fill="#3461D5"/>
</g>
<g style="mix-blend-mode:multiply" opacity="0.3">
<path d="M276.22 258.17C280.98 252.18 280.38 244.43 280.38 244.43C264.68 248.7 256.98 252.08 265.18 256.14C279.55 263.25 299.89 266.4 327.78 261.42C327.78 261.42 296.34 265.34 276.22 258.17Z" fill="#3461D5"/>
</g>
<g style="mix-blend-mode:overlay" opacity="0.25">
<path d="M305.61 232.18C305.49 209.95 292.32 209.24 292.32 209.24C292.32 209.24 304.62 212.79 302.95 231.05C302.95 231.05 295.7 229.68 289.75 229.8C289.75 229.8 320.03 232.12 330.12 260.99C328.28 243.57 305.61 232.18 305.61 232.18Z" fill="#3461D5"/>
</g>
<g style="mix-blend-mode:overlay" opacity="0.5">
<path d="M263.89 180.45C263.89 180.45 268.38 179.77 269.61 177.03C270.84 174.29 268.48 171.19 271.19 165.33C274.05 159.14 280.77 153.92 280.77 153.92C280.77 153.92 266.84 162.25 269 175.26V175.76C268.59 178.39 266.57 179.55 263.89 180.44V180.45Z" fill="#3461D5"/>
</g>
<g style="mix-blend-mode:multiply" opacity="0.3">
<path d="M277.73 188.27C272.99 184.9 275.13 181.62 268.04 182.7C259.96 183.94 249.74 187.55 249.38 198.25C249.02 208.95 258.03 214.55 258.03 214.55C248.44 205.95 247.62 192.19 257.84 187.13C269.17 181.52 272.33 184.07 272.95 184.8C272.99 184.86 273.03 184.91 273.07 184.97C282.03 197.28 295.45 191.53 295.45 191.53C290.47 193.35 282.45 191.64 277.71 188.27H277.73Z" fill="#3461D5"/>
</g>
<path d="M232.68 256.03C232.68 256.03 237.93 266.98 258.16 263.86C274.96 261.27 282.15 248.31 280.38 244.44C280.38 244.44 270.7 234.84 256.32 243.72C241.62 252.8 242.76 257.8 232.67 256.03H232.68Z" fill="#3461D5"/>
<g style="mix-blend-mode:multiply" opacity="0.3">
<path d="M258.16 263.86C274.96 261.27 282.15 248.31 280.38 244.44C280.38 244.44 277.11 256.94 256.66 261.78C241.48 265.37 232.68 256.03 232.68 256.03C232.68 256.03 237.93 266.98 258.16 263.86Z" fill="#3461D5"/>
</g>
<g style="mix-blend-mode:overlay" opacity="0.25">
<path d="M242.95 254.82C248.63 250.22 259.4 240.33 269.53 239.98C265.85 239.75 261.38 240.59 256.33 243.71C241.63 252.79 242.77 257.79 232.68 256.02C232.68 256.02 237.27 259.42 242.95 254.82Z" fill="#3461D5"/>
</g>
<g style="mix-blend-mode:multiply" opacity="0.3">
<path d="M259.54 247.14C258.59 247.82 257.52 247.95 257.14 247.42C256.76 246.89 257.22 245.92 258.17 245.23C259.12 244.55 260.19 244.42 260.57 244.95C260.95 245.48 260.49 246.45 259.54 247.14ZM256.83 248.32C256.54 247.91 255.71 248.01 254.98 248.54C254.25 249.07 253.89 249.82 254.18 250.23C254.47 250.64 255.3 250.54 256.03 250.01C256.76 249.48 257.12 248.73 256.83 248.32ZM256.23 246.19C256 245.88 255.36 245.95 254.8 246.36C254.23 246.77 253.96 247.35 254.18 247.66C254.41 247.97 255.05 247.9 255.61 247.49C256.18 247.08 256.45 246.5 256.23 246.19ZM259.26 248.38C259.06 248.1 258.49 248.17 257.99 248.53C257.49 248.89 257.24 249.41 257.44 249.69C257.64 249.97 258.21 249.9 258.71 249.54C259.21 249.18 259.46 248.66 259.26 248.38ZM261.35 247.2C261.19 246.98 260.75 247.04 260.36 247.32C259.97 247.6 259.78 248.01 259.93 248.23C260.09 248.45 260.53 248.39 260.92 248.11C261.31 247.83 261.5 247.42 261.35 247.2ZM254.18 248.39C254.08 248.25 253.79 248.28 253.54 248.47C253.29 248.65 253.16 248.91 253.27 249.05C253.38 249.19 253.66 249.16 253.91 248.97C254.16 248.79 254.29 248.53 254.18 248.39Z" fill="#3461D5"/>
</g>
<defs>
<linearGradient id="paint0_linear_725_1134" x1="71.77" y1="159.96" x2="277.29" y2="159.96" gradientUnits="userSpaceOnUse">
<stop stop-color="#0071BC"/>
<stop offset="1" stop-color="#22B573"/>
</linearGradient>
</defs>
</svg>
