<svg width="367" height="300" viewBox="0 0 367 300" fill="none" xmlns="http://www.w3.org/2000/svg">
<path d="M259.73 78.7C260.48 75.67 261.11 72.67 262.12 69.76C263.07 67.01 264.24 64.35 265.66 61.81C266.17 60.9 266.79 60.05 267.4 59.2C267.67 58.83 268.02 58.5 268.38 58.21C269.89 57.01 271.35 57.25 272.34 58.89C273.2 60.31 273.51 61.91 273.74 63.53C274.27 67.25 273.96 70.96 273.58 74.66C273.4 76.38 273.18 78.09 273.23 79.91C273.48 79.54 273.73 79.18 273.97 78.8C274.94 77.28 276.05 75.85 277.37 74.61C278.44 73.6 279.63 72.78 281.06 72.37C282.61 71.93 283.82 72.43 284.54 73.87C285.04 74.87 285.23 75.95 285.28 77.07C285.36 79.12 285.03 81.13 284.6 83.12C282.82 91.32 280.45 99.33 276.57 106.82C275.31 109.25 274.07 111.68 272.4 113.86C271.8 114.64 271.18 115.41 270.5 116.13C268.83 117.9 266.74 118.86 264.33 119.03C260.72 119.29 257.13 119.14 253.58 118.37C253.13 118.27 252.68 118.13 252.23 118.02C250.64 117.62 249.4 116.71 248.47 115.36C248.24 115.03 248 114.7 247.79 114.34C243.84 107.58 240.81 100.43 238.9 92.83C238.25 90.23 237.95 87.57 237.78 84.9C237.64 82.57 237.85 80.25 238.38 77.97C238.59 77.08 238.92 76.18 239.38 75.39C240.43 73.59 241.98 73.33 243.62 74.6C244.7 75.43 245.46 76.54 246.09 77.72C246.63 78.73 247.11 79.78 247.72 80.79C247.83 79.65 247.7 78.53 247.63 77.41C247.33 72.78 247.75 68.24 249.26 63.83C249.81 62.23 250.54 60.7 251.55 59.35C251.96 58.8 252.44 58.26 252.98 57.85C253.97 57.1 255.17 57.24 255.92 58.22C256.44 58.9 256.84 59.7 257.15 60.51C257.96 62.63 258.39 64.86 258.73 67.11C259.18 70.1 259.43 73.11 259.5 76.14C259.52 77 259.64 77.85 259.71 78.7H259.73ZM272.34 68.2C272.32 66.11 272.39 64 271.86 61.96C271.64 61.13 271.32 60.3 270.93 59.53C270.61 58.89 270.03 58.81 269.46 59.22C269.13 59.45 268.82 59.74 268.58 60.06C268.09 60.71 267.61 61.37 267.21 62.08C265.2 65.64 263.63 69.39 262.61 73.35C261.53 77.53 260.98 81.79 260.47 86.06C260.36 86.98 260.19 87.9 259.97 88.79C259.92 88.99 259.54 89.23 259.31 89.22C259.08 89.22 258.73 88.97 258.67 88.76C258.5 88.15 258.41 87.51 258.37 86.87C258.21 83.97 258.12 81.06 257.94 78.16C257.73 74.74 257.53 71.31 257.18 67.9C256.93 65.41 256.41 62.96 255.5 60.61C255.25 59.97 255.1 59.13 254.32 59.01C253.43 58.87 253.06 59.71 252.64 60.32C251.37 62.16 250.55 64.2 250.01 66.36C248.73 71.46 248.78 76.61 249.48 81.78C249.87 84.66 250.37 87.52 250.82 90.39C250.87 90.73 250.99 91.11 250.9 91.41C250.82 91.69 250.52 91.99 250.25 92.09C250.08 92.15 249.66 91.93 249.56 91.73C249.28 91.16 249.08 90.55 248.89 89.95C247.93 87.02 247.04 84.08 246 81.18C245.53 79.88 244.85 78.64 244.14 77.44C243.73 76.76 243.13 76.16 242.52 75.64C241.88 75.1 241.17 75.22 240.73 75.93C240.37 76.51 240.02 77.16 239.9 77.83C239.61 79.48 239.32 81.16 239.27 82.83C239.15 86.69 239.78 90.48 240.82 94.19C242.72 100.94 245.59 107.29 249.02 113.39C249.16 113.64 249.35 113.87 249.49 114.12C250.25 115.47 251.41 116.21 252.91 116.58C256.62 117.5 260.37 117.74 264.16 117.47C266.06 117.33 267.79 116.64 269.11 115.19C271.6 112.47 273.68 109.46 275.27 106.13C276.22 104.14 276.99 102.07 277.82 100.02C280.14 94.29 281.72 88.34 283.02 82.31C283.29 81.06 283.43 79.79 283.59 78.52C283.75 77.23 283.62 75.96 283.13 74.75C282.76 73.82 282.21 73.52 281.35 73.89C280.46 74.28 279.55 74.75 278.82 75.37C277.94 76.11 277.17 77.01 276.47 77.93C274.15 80.98 272.67 84.44 271.65 88.11C271.54 88.5 271.46 88.91 271.25 89.25C271.13 89.45 270.73 89.68 270.57 89.61C270.3 89.51 270.02 89.21 269.91 88.93C269.81 88.69 269.91 88.36 269.96 88.08C270.43 84.98 270.94 81.88 271.36 78.77C271.83 75.26 272.34 71.74 272.3 68.18L272.34 68.2Z" fill="white"/>
<path d="M272.34 68.2C272.32 66.11 272.39 64 271.86 61.96C271.64 61.13 271.32 60.3 270.93 59.53C270.61 58.89 270.03 58.81 269.46 59.22C269.13 59.45 268.82 59.74 268.58 60.06C268.09 60.71 267.61 61.37 267.21 62.08C265.2 65.64 263.63 69.39 262.61 73.35C261.53 77.53 260.98 81.79 260.47 86.06C260.36 86.98 260.19 87.9 259.97 88.79C259.92 88.99 259.54 89.23 259.31 89.22C259.08 89.22 258.73 88.97 258.67 88.76C258.5 88.15 258.41 87.51 258.37 86.87C258.21 83.97 258.12 81.06 257.94 78.16C257.73 74.74 257.53 71.31 257.18 67.9C256.93 65.41 256.41 62.96 255.5 60.61C255.25 59.97 255.1 59.13 254.32 59.01C253.43 58.87 253.06 59.71 252.64 60.32C251.37 62.16 250.55 64.2 250.01 66.36C248.73 71.46 248.78 76.61 249.48 81.78C249.87 84.66 250.37 87.52 250.82 90.39C250.87 90.73 250.99 91.11 250.9 91.41C250.82 91.69 250.52 91.99 250.25 92.09C250.08 92.15 249.66 91.93 249.56 91.73C249.28 91.16 249.08 90.55 248.89 89.95C247.93 87.02 247.04 84.08 246 81.18C245.53 79.88 244.85 78.64 244.14 77.44C243.73 76.76 243.13 76.16 242.52 75.64C241.88 75.1 241.17 75.22 240.73 75.93C240.37 76.51 240.02 77.16 239.9 77.83C239.61 79.48 239.32 81.16 239.27 82.83C239.15 86.69 239.78 90.48 240.82 94.19C242.72 100.94 245.59 107.29 249.02 113.39C249.16 113.64 249.35 113.87 249.49 114.12C250.25 115.47 251.41 116.21 252.91 116.58C256.62 117.5 260.37 117.74 264.16 117.47C266.06 117.33 267.79 116.64 269.11 115.19C271.6 112.47 273.68 109.46 275.27 106.13C276.22 104.14 276.99 102.07 277.82 100.02C280.14 94.29 281.72 88.34 283.02 82.31C283.29 81.06 283.43 79.79 283.59 78.52C283.75 77.23 283.62 75.96 283.13 74.75C282.76 73.82 282.21 73.52 281.35 73.89C280.46 74.28 279.55 74.75 278.82 75.37C277.94 76.11 277.17 77.01 276.47 77.93C274.15 80.98 272.67 84.44 271.65 88.11C271.54 88.5 271.46 88.91 271.25 89.25C271.13 89.45 270.73 89.68 270.57 89.61C270.3 89.51 270.02 89.21 269.91 88.93C269.81 88.69 269.91 88.36 269.96 88.08C270.43 84.98 270.94 81.88 271.36 78.77C271.83 75.26 272.34 71.74 272.3 68.18L272.34 68.2Z" fill="#36538B"/>
<path d="M260.54 91.77C260.57 92.4 260.67 93.05 260.84 93.66C260.9 93.87 261.26 94.11 261.48 94.12C261.7 94.12 262.09 93.88 262.14 93.69C262.36 92.79 262.53 91.88 262.64 90.96C263.16 86.69 263.71 82.42 264.78 78.25C265.8 74.29 267.37 70.54 269.38 66.98C269.78 66.27 270.26 65.61 270.75 64.96C270.99 64.64 271.3 64.36 271.63 64.12C271.82 63.98 272.02 63.9 272.2 63.88C272.13 63.24 272.02 62.6 271.86 61.96C271.64 61.13 271.32 60.3 270.93 59.53C270.61 58.89 270.03 58.81 269.46 59.22C269.13 59.45 268.82 59.74 268.58 60.06C268.09 60.71 267.61 61.37 267.21 62.08C265.2 65.64 263.63 69.39 262.61 73.35C261.53 77.53 260.98 81.79 260.47 86.06C260.43 86.4 260.38 86.74 260.32 87.09C260.39 88.66 260.46 90.22 260.54 91.79V91.77Z" fill="#2E4872"/>
<path d="M250.84 90.39C250.89 90.73 251.01 91.11 250.92 91.41C250.84 91.69 250.54 91.99 250.27 92.09C250.25 92.09 250.22 92.1 250.18 92.09C250.47 93.01 250.77 93.93 251.07 94.84C251.27 95.44 251.46 96.06 251.74 96.62C251.84 96.82 252.26 97.04 252.43 96.97C252.7 96.86 253 96.56 253.08 96.29C253.17 95.98 253.05 95.61 253 95.27C252.55 92.4 252.06 89.54 251.66 86.66C250.95 81.5 250.91 76.34 252.19 71.24C252.73 69.08 253.56 67.04 254.82 65.2C255.23 64.6 255.6 63.75 256.5 63.89C256.51 63.89 256.52 63.89 256.53 63.89C256.26 62.77 255.93 61.66 255.51 60.58C255.26 59.94 255.11 59.1 254.33 58.98C253.44 58.84 253.07 59.68 252.65 60.29C251.38 62.13 250.56 64.17 250.02 66.33C248.74 71.43 248.79 76.58 249.49 81.75C249.88 84.63 250.38 87.49 250.83 90.36L250.84 90.39Z" fill="#2E4872"/>
<path d="M243.01 99.1C241.96 95.39 241.34 91.6 241.46 87.74C241.51 86.07 241.8 84.39 242.09 82.74C242.21 82.08 242.56 81.42 242.92 80.84C243.36 80.13 244.07 80.01 244.71 80.55C245.32 81.07 245.92 81.67 246.33 82.35C246.41 82.49 246.49 82.62 246.57 82.76C246.39 82.23 246.21 81.71 246.02 81.19C245.55 79.89 244.87 78.65 244.16 77.45C243.75 76.77 243.15 76.17 242.54 75.65C241.9 75.11 241.19 75.23 240.75 75.94C240.39 76.52 240.04 77.17 239.92 77.84C239.63 79.49 239.34 81.17 239.29 82.84C239.17 86.7 239.8 90.49 240.84 94.2C242.1 98.66 243.77 102.94 245.76 107.09C244.7 104.48 243.78 101.83 243.01 99.1Z" fill="#2E4872"/>
<path d="M168.39 262.4C225.143 262.4 271.15 216.393 271.15 159.64C271.15 102.887 225.143 56.88 168.39 56.88C111.637 56.88 65.63 102.887 65.63 159.64C65.63 216.393 111.637 262.4 168.39 262.4Z" fill="url(#paint0_linear_725_1041)" stroke="white" stroke-width="5" stroke-miterlimit="10"/>
<path d="M235.2 189.9C235.2 189.9 246.75 186.15 258.45 202.94C268.16 216.89 263.74 231.03 259.72 232.43C259.72 232.43 246.1 232.05 242.61 215.51C239.04 198.61 243.45 195.98 235.21 189.9H235.2Z" fill="#3461D5"/>
<g style="mix-blend-mode:multiply" opacity="0.3">
<path d="M258.44 202.94C256.95 200.81 255.47 199 254.01 197.48C253.99 197.46 253.97 197.44 253.95 197.42C257.34 202.39 259.87 208.53 258.52 209.51C256.02 211.32 247.14 208.53 241.11 205.34C241.32 208.12 241.68 211.11 242.6 215.5C246.09 232.04 259.71 232.42 259.71 232.42C263.73 231.02 268.15 216.88 258.44 202.93V202.94Z" fill="#3461D5"/>
</g>
<g style="mix-blend-mode:overlay" opacity="0.5">
<path d="M235.2 189.9C240.49 193.8 240.57 196.28 240.89 202.02C240.89 202.02 241.72 192.59 236.59 190.23C236.59 190.23 241.49 189.82 247.55 192.29C240.5 188.19 235.21 189.9 235.21 189.9H235.2Z" fill="#3461D5"/>
</g>
<g style="mix-blend-mode:multiply" opacity="0.3">
<path d="M247.72 193.23C248.38 193.75 248.69 194.47 248.4 194.84C248.11 195.21 247.34 195.08 246.67 194.56C246.01 194.04 245.7 193.32 245.99 192.95C246.28 192.58 247.05 192.71 247.72 193.23ZM248.75 195.11C248.53 195.39 248.76 195.95 249.28 196.35C249.79 196.75 250.39 196.85 250.61 196.56C250.83 196.28 250.6 195.72 250.08 195.32C249.57 194.92 248.97 194.82 248.75 195.11ZM247.27 195.64C247.1 195.86 247.27 196.29 247.68 196.6C248.08 196.91 248.54 196.98 248.71 196.77C248.88 196.55 248.71 196.12 248.3 195.81C247.9 195.5 247.44 195.43 247.27 195.64ZM245.25 194.4C245.1 194.6 245.25 194.98 245.61 195.25C245.96 195.53 246.37 195.59 246.53 195.4C246.68 195.2 246.53 194.82 246.17 194.55C245.82 194.27 245.41 194.21 245.25 194.4ZM245.06 193.43C244.98 193.53 245.06 193.72 245.24 193.86C245.42 194 245.62 194.03 245.7 193.93C245.78 193.83 245.7 193.64 245.52 193.5C245.34 193.36 245.14 193.33 245.06 193.43ZM246.17 195.96C246.07 196.09 246.17 196.34 246.41 196.52C246.64 196.7 246.91 196.74 247.01 196.62C247.11 196.49 247.01 196.24 246.77 196.06C246.54 195.88 246.27 195.84 246.17 195.96Z" fill="#3461D5"/>
</g>
<path d="M284.14 220.18C284.02 197.95 270.85 197.24 270.85 197.24C272.14 208.53 264.62 213 264.62 213C264.62 213 259.56 214.18 243.68 207.12C227.8 200.06 224.04 181.24 236.39 175.12C247.72 169.51 250.88 172.06 251.5 172.79C251.54 172.85 251.58 172.9 251.62 172.96C260.58 185.27 274 179.52 274 179.52C274 179.52 261.47 175.01 257.83 166.07C253.18 154.64 259.3 141.91 259.3 141.91C259.3 141.91 245.37 150.24 247.53 163.25V163.75C246.87 168.05 241.91 168.42 236.8 170.08C234.12 170.95 214.88 173.39 213.91 197.57C212.94 221.75 235.28 263.06 308.65 248.97C306.81 231.55 284.14 220.16 284.14 220.16V220.18Z" fill="#3461D5"/>
<g style="mix-blend-mode:overlay" opacity="0.3">
<path d="M215.11 193.78C215.22 190.99 215.58 188.49 216.12 186.25C214.9 189.37 214.09 193.11 213.91 197.59C212.94 221.77 235.28 263.08 308.65 248.99C235.19 252.06 214.14 217.95 215.11 193.77V193.78Z" fill="#3461D5"/>
</g>
<g style="mix-blend-mode:multiply" opacity="0.3">
<path d="M254.76 246.17C259.52 240.18 258.92 232.43 258.92 232.43C243.22 236.7 235.52 240.08 243.72 244.14C258.09 251.25 278.43 254.4 306.32 249.42C306.32 249.42 274.88 253.34 254.76 246.17Z" fill="#3461D5"/>
</g>
<g style="mix-blend-mode:overlay" opacity="0.25">
<path d="M284.14 220.18C284.02 197.95 270.85 197.24 270.85 197.24C270.85 197.24 283.15 200.79 281.48 219.05C281.48 219.05 274.23 217.68 268.28 217.8C268.28 217.8 298.56 220.12 308.65 248.99C306.81 231.57 284.14 220.18 284.14 220.18Z" fill="#3461D5"/>
</g>
<g style="mix-blend-mode:overlay" opacity="0.5">
<path d="M242.43 168.45C242.43 168.45 246.92 167.77 248.15 165.03C249.37 162.29 247.02 159.19 249.73 153.33C252.59 147.14 259.31 141.92 259.31 141.92C259.31 141.92 245.38 150.25 247.54 163.26V163.76C247.13 166.39 245.11 167.55 242.43 168.44V168.45Z" fill="#3461D5"/>
</g>
<g style="mix-blend-mode:multiply" opacity="0.3">
<path d="M256.27 176.27C251.53 172.9 253.67 169.62 246.58 170.7C238.5 171.94 228.28 175.55 227.92 186.25C227.56 196.95 236.57 202.55 236.57 202.55C226.98 193.95 226.16 180.19 236.38 175.13C247.71 169.52 250.87 172.07 251.49 172.8C251.53 172.86 251.57 172.91 251.61 172.97C260.57 185.28 273.99 179.53 273.99 179.53C269.01 181.35 260.99 179.64 256.25 176.27H256.27Z" fill="#3461D5"/>
</g>
<path d="M211.22 244.03C211.22 244.03 216.47 254.98 236.7 251.86C253.5 249.27 260.69 236.31 258.92 232.44C258.92 232.44 249.24 222.84 234.86 231.72C220.16 240.8 221.3 245.8 211.21 244.03H211.22Z" fill="#3461D5"/>
<g style="mix-blend-mode:multiply" opacity="0.3">
<path d="M236.69 251.86C253.49 249.27 260.68 236.31 258.91 232.44C258.91 232.44 255.64 244.94 235.19 249.78C220.01 253.37 211.21 244.03 211.21 244.03C211.21 244.03 216.46 254.98 236.69 251.86Z" fill="#3461D5"/>
</g>
<g style="mix-blend-mode:overlay" opacity="0.25">
<path d="M221.49 242.82C227.17 238.22 237.94 228.33 248.07 227.98C244.39 227.75 239.92 228.59 234.87 231.71C220.17 240.79 221.31 245.79 211.22 244.02C211.22 244.02 215.81 247.42 221.49 242.82Z" fill="#3461D5"/>
</g>
<g style="mix-blend-mode:multiply" opacity="0.3">
<path d="M238.07 235.14C237.12 235.82 236.05 235.95 235.67 235.42C235.29 234.89 235.75 233.92 236.7 233.23C237.65 232.55 238.72 232.42 239.1 232.95C239.48 233.48 239.02 234.45 238.07 235.14ZM235.37 236.32C235.08 235.91 234.25 236.01 233.52 236.54C232.79 237.07 232.43 237.82 232.72 238.23C233.01 238.64 233.84 238.54 234.57 238.01C235.3 237.48 235.66 236.73 235.37 236.32ZM234.77 234.19C234.54 233.88 233.9 233.95 233.34 234.36C232.77 234.77 232.5 235.35 232.72 235.66C232.95 235.97 233.59 235.9 234.15 235.49C234.72 235.08 234.99 234.5 234.77 234.19ZM237.8 236.38C237.6 236.1 237.03 236.17 236.53 236.53C236.03 236.89 235.78 237.41 235.98 237.69C236.18 237.97 236.75 237.9 237.25 237.54C237.75 237.18 238 236.66 237.8 236.38ZM239.88 235.2C239.72 234.98 239.28 235.04 238.89 235.32C238.5 235.6 238.31 236.01 238.46 236.23C238.62 236.45 239.06 236.39 239.45 236.11C239.84 235.83 240.03 235.42 239.88 235.2ZM232.72 236.39C232.62 236.25 232.33 236.28 232.08 236.47C231.83 236.65 231.7 236.91 231.81 237.05C231.92 237.19 232.2 237.16 232.45 236.97C232.7 236.79 232.83 236.53 232.72 236.39Z" fill="#3461D5"/>
</g>
<defs>
<linearGradient id="paint0_linear_725_1041" x1="65.63" y1="159.64" x2="271.15" y2="159.64" gradientUnits="userSpaceOnUse">
<stop stop-color="#0071BC"/>
<stop offset="1" stop-color="#22B573"/>
</linearGradient>
</defs>
</svg>
