<svg width="394" height="467" viewBox="0 0 394 467" fill="none" xmlns="http://www.w3.org/2000/svg">
<path d="M172.62 393.6C156.76 390.94 188.34 376.21 174.5 368C164.28 361.94 169.07 389.33 165.5 378C162.01 366.94 125.5 371 99.6 326.1C94.2 316.74 101.51 304.58 104.55 294.21C107.41 284.44 110.97 274.77 116.57 266.28C126.15 251.74 140.96 241.61 155.39 231.86C167.54 223.65 179.84 215.36 193.6 210.26C210.83 203.87 229.49 202.8 247.81 201.49C263.68 200.36 279.87 199.03 295.33 202.81C311.53 206.77 332.5 233 332.5 260C332.5 362.07 316.58 353.81 323.5 366C330.42 378.19 322.34 340.28 319.5 354C315.4 373.82 353.67 333.25 336.01 343.14C318.35 353.02 298.76 359.19 281.38 369.55" fill="#3461D5"/>
<path d="M173.02 392.15C171.96 391.97 170.93 391.7 170.17 391.3C169.78 391.09 169.93 391.26 169.65 390.88C169.89 391.21 169.61 390.82 169.57 390.73C169.66 390.97 169.54 390.78 169.53 390.55C169.53 390.62 169.51 390.8 169.54 390.47C169.57 390.04 169.51 390.49 169.54 390.31C169.57 390.17 169.61 390.02 169.65 389.88C169.67 389.81 169.7 389.73 169.72 389.66C169.85 389.29 169.59 389.94 169.75 389.57C170.1 388.81 170.56 388.11 171.05 387.43C173.4 384.16 176.75 381.1 178.54 377.27C179.38 375.47 179.9 373.45 179.34 371.48C178.71 369.26 176.87 367.59 174.89 366.53C173.15 365.6 171.07 365.2 169.35 366.4C167.82 367.47 167.07 369.36 166.63 371.11C166.15 372.98 165.96 374.93 165.8 376.85C165.74 377.61 165.69 378.37 165.62 379.14C165.61 379.29 165.59 379.45 165.57 379.6C165.53 379.98 165.6 379.47 165.57 379.64C165.56 379.71 165.41 380.14 165.44 380.2C165.07 379.51 167.78 378.91 167.78 379.87C167.78 379.75 167.42 379.13 167.57 379.48C167.26 378.72 167.06 377.92 166.76 377.16C166.24 375.82 165.34 374.68 164.23 373.76C161.44 371.44 157.9 370.12 154.56 368.8C149.94 366.96 145.29 365.2 140.8 363.05C127.33 356.61 115.84 347.07 107.07 334.97C105.65 333.01 104.3 331 103.01 328.94C101.72 326.88 100.38 324.96 99.72 322.7C98.47 318.45 99.42 313.93 100.66 309.8C102.04 305.22 103.97 300.82 105.45 296.27C107.05 291.37 108.45 286.44 110.35 281.64C114.15 272.07 119.56 263.47 126.75 256.09C133.64 249.02 141.6 243.13 149.7 237.54C158.3 231.61 166.94 225.65 175.99 220.41C185.04 215.17 195.01 210.79 205.44 208.25C215.87 205.71 226.95 204.57 237.82 203.73C248.69 202.89 260.07 201.87 271.21 201.83C276.78 201.81 282.38 202.07 287.89 202.91C291.88 203.51 295.96 204.23 299.61 206.02C306.38 209.33 312.02 214.85 316.6 220.75C322.08 227.81 326.28 235.96 328.72 244.56C329.97 248.96 330.75 253.48 330.92 258.06C331.12 263.39 330.93 268.75 330.85 274.08C330.6 290.09 329.95 306.13 328.14 322.04C327.2 330.32 325.91 338.6 323.83 346.68C322.87 350.38 321.52 353.98 320.63 357.69C320 360.33 320.2 362.71 321.34 365.18C322.12 366.87 323.74 370.58 326.09 369.89C328.92 369.06 327.46 363.4 327.1 361.51C326.47 358.15 325.64 354.32 323.78 351.4C323.07 350.29 321.95 349.15 320.5 349.57C318.9 350.03 318.36 352.03 318.05 353.45C317.48 356.04 317.1 360.34 320.59 360.98C323.53 361.52 326.7 359.18 328.9 357.54C332.04 355.2 334.95 352.51 337.56 349.6C339.22 347.75 341.59 345.36 342.08 342.8C342.35 341.38 341.48 340.13 339.98 340.09C338.61 340.05 337.2 340.82 336.03 341.43C331.7 343.68 327.43 346.01 323.01 348.09C318.19 350.36 313.3 352.49 308.42 354.63C298.95 358.78 289.49 363 280.58 368.29C278.92 369.27 280.43 371.87 282.09 370.88C291.13 365.51 300.74 361.25 310.35 357.04C315.23 354.9 320.12 352.77 324.94 350.49C329.2 348.48 333.31 346.25 337.48 344.06C337.85 343.87 338.22 343.68 338.59 343.51C338.92 343.36 338.46 343.55 338.85 343.4C339 343.35 339.14 343.29 339.29 343.24C339.52 343.17 339.75 343.11 339.98 343.07C339.75 343.11 339.67 343.07 339.9 343.09C340.25 343.13 339.74 343.03 339.81 343.07C339.74 343.03 339.43 342.87 339.26 342.62C339.22 342.56 339.11 342.12 339.14 342.31C339.1 342.1 339.2 342.06 339.08 342.45C339.06 342.5 338.93 342.84 339.04 342.57C339.15 342.3 338.98 342.69 338.95 342.75C337.48 345.43 335.57 347.47 333.29 349.76C330.67 352.39 328.03 354.76 324.94 356.62C324.31 357 323.65 357.36 322.97 357.66C323.27 357.53 322.57 357.81 322.41 357.86C322.13 357.95 321.85 358.02 321.57 358.07C321.35 358.11 321.92 358.03 321.54 358.07C321.43 358.08 321.32 358.07 321.22 358.07C320.82 358.08 321.53 358.05 321.21 358.07C321.13 358.07 320.97 358.02 320.9 357.98C321.32 358.21 320.68 357.78 320.95 357.98C320.63 357.75 321.09 358.11 320.93 357.98C320.86 357.92 320.75 357.57 320.82 357.81C320.87 357.99 320.7 357.38 320.67 357.2C320.62 356.97 320.67 357.49 320.67 357.07C320.67 356.87 320.65 356.67 320.66 356.47C320.68 355.52 320.77 355.05 320.99 354.09C321.08 353.7 321.19 353.32 321.31 352.94C321.39 352.69 321.47 352.55 321.4 352.71C321.46 352.58 321.52 352.45 321.6 352.34C321.63 352.3 321.36 352.41 321.63 352.32C321.8 352.26 321.45 352.43 321.42 352.44C321.22 352.52 320.95 352.49 320.73 352.39C320.91 352.47 320.96 352.65 320.72 352.35C320.78 352.43 320.88 352.47 320.93 352.56C320.98 352.65 321.23 352.95 320.97 352.58C321.07 352.71 321.16 352.84 321.24 352.98C321.39 353.24 321.54 353.49 321.67 353.76C321.84 354.09 322.03 354.54 322.05 354.58C322.73 356.24 323.23 357.97 323.66 359.71C323.89 360.63 324.09 361.56 324.26 362.5C324.42 363.38 324.53 364.12 324.6 364.74C324.67 365.43 324.73 366.12 324.71 366.81C324.71 366.94 324.7 367.06 324.69 367.19C324.68 367.63 324.71 367.07 324.69 367.24C324.65 367.64 324.42 367.66 324.67 367.45C324.47 367.62 324.97 367.16 324.76 367.34C325.05 367.1 325.25 367.01 325.58 366.99C325.95 366.97 325.75 367.03 326.07 367.12C326.1 367.17 325.79 367.04 326.07 367.12C325.98 367.01 325.53 366.5 325.74 366.77C325.49 366.44 325.26 366.08 325.05 365.72C324.62 365.01 324.26 364.28 323.9 363.53C323.7 363.11 323.99 363.79 323.86 363.44C323.81 363.3 323.75 363.15 323.7 363.01C323.61 362.75 323.53 362.49 323.46 362.23C323.39 361.97 323.35 361.71 323.3 361.46C323.24 361.16 323.32 361.93 323.3 361.44C323.3 361.31 323.28 361.18 323.27 361.05C323.26 360.8 323.27 360.55 323.27 360.3C323.28 360.07 323.4 359.25 323.3 359.88C323.39 359.3 323.51 358.72 323.65 358.15C324.61 354.4 325.93 350.76 326.89 347.01C328.95 338.9 330.21 330.6 331.16 322.29C332.93 306.88 333.59 291.34 333.87 275.84C334.05 266.02 334.65 256.04 332.36 246.41C330.31 237.82 326.52 229.6 321.51 222.33C317.09 215.92 311.67 210.01 305.14 205.7C298.03 201.01 289.61 199.79 281.26 199.16C270.2 198.32 259.1 199.2 248.06 199.99C237.02 200.78 226.78 201.43 216.24 203.07C205.79 204.7 195.59 207.43 185.95 211.84C176.31 216.25 167.63 221.85 158.97 227.66C143.08 238.31 126.17 249.11 115.4 265.36C109.64 274.04 106.07 283.9 103.11 293.83C100.59 302.26 95.51 310.85 96.23 319.92C96.6 324.55 99.01 328.27 101.48 332.07C103.95 335.87 106.75 339.64 109.75 343.14C114.71 348.92 120.4 354.05 126.67 358.37C131.67 361.82 137.04 364.69 142.6 367.14C146.94 369.05 151.39 370.67 155.76 372.48C157.12 373.04 158.85 373.82 160.29 374.64C161.64 375.42 162.27 375.82 163.27 376.98C163.51 377.26 163.23 376.91 163.35 377.08C163.43 377.19 163.51 377.3 163.58 377.42C163.74 377.67 163.88 377.94 164 378.21C163.82 377.81 164.01 378.26 164.04 378.36C164.11 378.59 164.18 378.81 164.26 379.04C164.4 379.45 164.54 379.86 164.7 380.26C164.96 380.91 165.25 381.67 165.88 382.04C166.7 382.52 167.71 382.21 168.17 381.41C168.78 380.36 168.67 378.79 168.76 377.62C168.9 375.75 169.02 374.25 169.4 372.51C169.49 372.08 169.6 371.65 169.73 371.23C169.79 371.04 169.85 370.85 169.92 370.66C170.04 370.31 169.99 370.44 170.06 370.29C170.22 369.95 170.4 369.62 170.61 369.31C170.5 369.47 171.19 368.76 170.98 368.91C171.12 368.81 171.27 368.73 171.42 368.66C171.11 368.8 171.49 368.64 171.6 368.63C171.84 368.61 171.37 368.63 171.8 368.62C171.89 368.62 171.97 368.62 172.06 368.62C172.48 368.65 171.77 368.55 172.21 368.65C173.08 368.85 173.88 369.3 174.67 369.9C175.46 370.5 176.05 371.18 176.35 371.89C176.6 372.47 176.66 373.14 176.57 373.79C176.36 375.38 175.33 377.07 174.27 378.58C172.05 381.73 168.83 384.48 167.18 388.03C166.52 389.46 166.23 391.08 167.13 392.48C168.2 394.14 170.39 394.72 172.22 395.04C174.05 395.36 174.92 392.48 173.02 392.15Z" fill="black"/>
<path d="M160.05 274.68C162.62 274.04 165.18 273.38 167.75 272.71C178.62 269.88 189.31 267.86 200.45 266.26C197.31 266.72 194.18 267.17 191.04 267.63C205.06 265.45 218.94 261.99 232.14 256.75C235.57 255.11 238.92 253.32 242.16 251.33C246.8 248.5 251.3 245.59 256.2 243.21C258.45 242.12 260.71 241.07 262.98 240.06C261.9 239.54 260.82 239.04 259.74 238.55C214.37 254.41 166.9 271.84 150.68 266.09C147.83 268.56 145.21 271.03 142.82 273.5C145.2 273.53 147.59 273.52 149.97 273.69C153.29 273.93 156.71 274.14 160.06 274.66L160.05 274.68Z" fill="#3461D5" stroke="black" stroke-width="2.09" stroke-miterlimit="10"/>
<g opacity="0.15">
<path d="M200.45 266.26C197.31 266.72 194.18 267.17 191.04 267.63C205.06 265.45 218.94 261.99 232.14 256.75C232.48 256.59 232.81 256.42 233.14 256.26C229.35 254.3 225.39 252.83 221.35 251.89C205.79 257.12 191.15 261.67 178.93 264.42C176.89 266.53 175.04 268.84 173.37 271.32C182.32 269.2 191.23 267.58 200.44 266.26H200.45Z" fill="#000072"/>
</g>
<path d="M136.52 273.29C136.92 273.29 137.31 273.29 137.72 273.29C141.79 273.67 145.89 273.42 149.97 273.71C153.28 273.95 156.7 274.16 160.04 274.69C162.62 274.05 165.19 273.38 167.75 272.71C178.62 269.88 189.31 267.86 200.45 266.26C197.31 266.72 194.18 267.17 191.04 267.63C205.06 265.45 218.94 261.99 232.14 256.75C235.57 255.11 238.92 253.32 242.16 251.33C246.8 248.5 251.3 245.59 256.2 243.21C261.66 240.56 267.19 238.16 272.8 235.96C282.05 227.64 289.59 217.51 293.06 205.29C297.88 188.32 291.98 177.17 286.41 170.95C283.21 167.38 280.12 165.43 279.23 164.94C272.56 151 253.31 94.81 199.61 88.82C181.4 73.17 169.4 55.04 159.22 48.79C153.51 45.29 148.61 46.01 144.55 49.46C133.86 58.55 129.03 86.51 130.82 105.67C80.52 138.08 95.05 200.91 96.83 217.01C96.33 217.9 94.74 221.19 93.91 225.91C92.46 234.13 93.34 246.71 106.39 258.58C114.95 266.36 125.46 270.88 136.51 273.28L136.52 273.29Z" fill="#3461D5" stroke="black" stroke-width="2.39" stroke-miterlimit="10"/>
<g opacity="0.15">
<path d="M136.53 273.28C136.92 273.28 137.32 273.28 137.71 273.28C141.78 273.66 145.88 273.41 149.96 273.7C153.27 273.94 156.69 274.15 160.03 274.68C162.61 274.04 165.18 273.37 167.74 272.7C178.61 269.87 189.3 267.85 200.44 266.25C197.3 266.71 194.17 267.16 191.03 267.62C205.05 265.44 218.93 261.98 232.13 256.74C235.56 255.1 238.91 253.31 242.15 251.32C246.79 248.49 251.29 245.58 256.19 243.2C261.65 240.55 267.19 238.14 272.81 235.94C282.05 227.62 289.59 217.49 293.07 205.27C296.1 194.58 294.89 186.2 292.18 179.91C292.94 184.85 292.7 190.64 290.8 197.34C279.13 238.41 221.46 255.98 207.72 259.9C193.98 263.82 135.73 279.35 104.14 250.63C98.99 245.95 95.74 241.15 93.77 236.56C94.79 243.33 98.19 251.09 106.4 258.56C114.96 266.34 125.47 270.86 136.52 273.26L136.53 273.28Z" fill="#000072"/>
</g>
<path d="M193.47 206.26L193.23 206.37L193.21 206.29L193.47 206.26Z" fill="#512717"/>
<path d="M193.7 206.15L193.72 206.23L193.47 206.26L193.7 206.15Z" fill="#512717"/>
<g opacity="0.24">
<path d="M203.52 193.37C205.57 194.79 208.23 194.94 210.72 194.79C222.42 194.08 233.06 188 242.95 181.71C245.12 180.33 247.3 178.92 249.11 177.09C251.08 175.1 252.56 172.67 253.69 170.11C255.79 165.33 256.67 160.03 256.23 154.83C244.92 167.89 227.5 173.78 214.11 184.69C211.83 186.55 209.64 188.57 207.08 190.02C205.45 190.94 203.53 191.77 202.81 193.51L203.52 193.38V193.37Z" fill="black"/>
</g>
<path d="M201.3 191.9C204.18 179.58 212.78 168.72 224.11 163.09C234.92 157.72 247.64 157.04 258.32 151.41C252.1 161.07 245.65 170.99 236.24 177.59C230.95 181.3 224.94 183.82 218.95 186.26C213.17 188.62 207.36 190.95 201.55 193.23" fill="white"/>
<path d="M202.14 192.13C204.24 183.35 209.15 175.4 216 169.51C219.59 166.43 223.69 164.01 228.08 162.27C232.84 160.38 237.82 159.16 242.75 157.85C248.24 156.39 253.7 154.79 258.76 152.15L257.57 150.96C252.8 158.37 247.96 165.88 241.57 172.03C234.73 178.62 226.26 182.34 217.58 185.87C212.17 188.07 206.75 190.24 201.32 192.37C200.29 192.77 200.74 194.46 201.78 194.05C206.75 192.1 211.72 190.11 216.67 188.1C221.2 186.26 225.76 184.46 230.11 182.23C238.33 178.02 244.83 171.88 250.38 164.57C253.49 160.47 256.28 156.15 259.06 151.83C259.56 151.06 258.6 150.26 257.87 150.64C248.36 155.59 237.5 156.66 227.6 160.58C219 163.99 211.68 169.85 206.57 177.57C203.73 181.86 201.65 186.64 200.45 191.65C200.19 192.74 201.87 193.2 202.13 192.11L202.14 192.13Z" fill="black"/>
<path d="M200.24 193.4C204.09 195.05 208.23 195.86 212.42 195.64C216.61 195.42 220.78 194.03 224.66 192.2C232.39 188.56 240.11 184.51 247.28 179.86C251.3 177.25 255.13 174.35 258.61 171.07C259.43 170.3 258.19 169.07 257.38 169.84C251.49 175.39 244.63 179.72 237.56 183.59C234.03 185.52 230.44 187.36 226.85 189.19C223.08 191.11 219.21 192.95 215 193.64C210.33 194.4 205.45 193.77 201.1 191.91C200.08 191.47 199.2 192.97 200.22 193.41L200.24 193.4Z" fill="black"/>
<path d="M196.11 189.61C202.21 184.32 204.58 176.4 207.99 169.36C211.58 161.94 217.11 155.87 224.42 151.97C228.52 149.79 233.03 148.37 237.65 147.87C238.75 147.75 238.76 146.01 237.65 146.13C229.47 147.02 221.74 150.52 215.63 156.03C212.58 158.78 209.98 162.04 207.97 165.63C205.92 169.28 204.41 173.2 202.66 176.99C200.71 181.21 198.43 185.3 194.88 188.38C194.03 189.11 195.27 190.34 196.11 189.61Z" fill="black"/>
<path d="M244.8 148.11C249 147.03 253.5 147.3 257.17 144.65C260.32 142.37 262.42 138.96 265.53 136.65C266.42 135.99 265.55 134.48 264.65 135.15C261.63 137.4 259.55 140.62 256.59 142.93C253.03 145.7 248.5 145.37 244.34 146.44C243.26 146.72 243.72 148.4 244.8 148.12V148.11Z" fill="black"/>
<path d="M212.01 173.05C210.92 175.11 210.51 177.52 210.86 179.82C211.09 181.35 211.69 182.9 212.86 183.92C213.58 184.54 214.46 184.94 215.37 185.21C218.21 186.05 221.38 185.67 223.94 184.18C226.5 182.69 228.41 180.14 229.1 177.26C229.56 175.33 229.48 173.23 228.65 171.43C227.13 168.15 223.16 166.32 219.61 166.98C216.05 167.64 213.11 170.54 212.03 173.99" fill="#CE1B0D"/>
<path d="M211.26 172.61C209.34 176.39 208.98 182.47 213 185.09C216.78 187.56 222.31 186.69 225.72 184.02C229.13 181.35 231.11 176.65 229.93 172.37C228.86 168.51 225.06 165.99 221.13 165.98C216.49 165.96 212.6 169.5 211.2 173.76C210.85 174.83 212.53 175.28 212.88 174.22C213.9 171.11 216.46 168.5 219.73 167.84C222.75 167.23 226.19 168.69 227.69 171.41C229.5 174.69 228.27 178.97 225.83 181.57C223.26 184.32 219.25 185.42 215.63 184.35C213.53 183.73 212.28 182.28 211.82 180.15C211.34 177.9 211.74 175.51 212.77 173.47C213.28 172.48 211.78 171.59 211.27 172.59L211.26 172.61Z" fill="black"/>
<path d="M218.49 174.65C218.71 173.75 218.98 172.83 219.56 172.1C220.14 171.37 221.07 170.86 221.99 171.03C223.2 171.26 223.9 172.51 224.43 173.62C224.68 174.15 224.92 174.82 224.56 175.29C224.41 175.49 224.18 175.6 223.95 175.7C223.26 176.02 222.54 176.29 221.82 176.51C221.17 176.71 220.44 176.86 219.83 176.55C219.09 176.18 218.8 175.29 218.59 174.49" fill="black"/>
<path d="M219.33 174.88C219.46 174.35 219.61 173.76 219.83 173.32C220.05 172.88 220.35 172.43 220.69 172.21C220.94 172.04 221.04 171.99 221.28 171.92C221.34 171.9 221.4 171.89 221.46 171.88C221.61 171.85 221.35 171.88 221.5 171.88C221.56 171.88 221.62 171.88 221.68 171.88C221.72 171.88 221.88 171.9 221.77 171.88C221.88 171.9 221.98 171.93 222.09 171.97C221.94 171.92 222.1 171.97 222.14 172C222.19 172.03 222.23 172.05 222.28 172.08C222.33 172.11 222.37 172.14 222.41 172.17C222.52 172.25 222.32 172.09 222.43 172.18C222.52 172.26 222.61 172.35 222.7 172.44C222.74 172.48 222.77 172.52 222.81 172.57C222.99 172.77 222.76 172.5 222.86 172.63C222.93 172.72 222.99 172.82 223.06 172.91C223.19 173.12 223.32 173.33 223.43 173.55C223.54 173.77 223.66 173.99 223.76 174.22C223.82 174.36 223.73 174.13 223.78 174.28C223.8 174.34 223.82 174.4 223.84 174.46C223.86 174.52 223.87 174.58 223.89 174.65C223.91 174.73 223.9 174.6 223.89 174.74V174.83C223.89 174.76 223.89 174.75 223.88 174.81V174.85C223.88 174.85 223.88 174.8 223.89 174.79C223.95 174.73 223.78 174.87 223.85 174.82C223.92 174.77 223.76 174.87 223.74 174.88C223.49 175.02 223.22 175.13 222.95 175.23C222.37 175.46 221.77 175.68 221.15 175.82C220.99 175.86 220.93 175.87 220.82 175.88C220.75 175.88 220.68 175.88 220.62 175.88C220.62 175.88 220.36 175.85 220.45 175.87C220.29 175.84 220.27 175.82 220.13 175.74C220.1 175.72 220.01 175.64 220.11 175.72C220.06 175.67 220.01 175.62 219.96 175.57C219.87 175.47 220.02 175.66 219.94 175.55C219.9 175.49 219.86 175.43 219.83 175.37C219.8 175.32 219.77 175.27 219.75 175.22C219.75 175.22 219.64 174.97 219.7 175.11C219.59 174.84 219.51 174.56 219.44 174.27C219.15 173.19 217.47 173.65 217.76 174.73C217.95 175.43 218.19 176.13 218.66 176.7C219.16 177.31 219.93 177.63 220.72 177.6C221.51 177.57 222.3 177.3 223.04 177.03C223.45 176.88 223.85 176.71 224.25 176.53C224.65 176.35 224.99 176.16 225.26 175.82C225.84 175.07 225.62 174.15 225.27 173.36C225.02 172.81 224.74 172.25 224.38 171.76C223.98 171.21 223.5 170.7 222.87 170.41C222.15 170.08 221.34 170.03 220.6 170.31C218.83 170.98 218.08 172.7 217.67 174.41C217.56 174.87 217.81 175.35 218.28 175.48C218.75 175.61 219.24 175.33 219.35 174.87L219.33 174.88Z" fill="black"/>
<g opacity="0.26">
<path d="M203.01 189.48C204.76 184.23 207.05 179.2 209.84 174.42C212.63 169.64 215.86 164.93 219.82 161.04C227.73 153.27 238.93 152.17 249.31 150.37C255.38 149.32 261.36 147.14 265.03 141.91C265.75 140.88 265.22 139.33 264.2 138.74C263.04 138.06 261.75 138.54 261.03 139.57C257.98 143.92 252.29 145.21 247.38 146.02C241.94 146.92 236.49 147.63 231.22 149.32C225.95 151.01 221.19 153.44 217.2 157.14C213.21 160.84 209.59 165.91 206.63 170.76C203.28 176.25 200.58 182.15 198.54 188.25C197.59 191.09 202.07 192.3 203.01 189.48Z" fill="black"/>
</g>
<path d="M192.39 186.48C198.07 183.92 196.65 176.73 196.93 171.78C197.23 166.48 199.24 161.42 202.19 157.06C208.69 147.47 219.17 141.92 230.1 138.88C236.88 137 243.85 135.95 250.81 135.04C251.9 134.9 251.92 133.16 250.81 133.3C238.59 134.9 226.04 136.89 215.15 143.03C206.16 148.1 198.35 156.56 195.92 166.8C195.17 169.95 195.16 173.05 195.21 176.26C195.26 179.47 194.88 183.46 191.51 184.98C190.49 185.44 191.37 186.94 192.39 186.48Z" fill="black"/>
<g opacity="0.24">
<path d="M177.77 200.72C176.78 203.01 174.6 204.54 172.4 205.73C162.09 211.31 149.85 211.76 138.12 211.64C135.55 211.61 132.95 211.56 130.45 210.97C127.73 210.32 125.18 209.04 122.87 207.46C118.57 204.51 115.02 200.47 112.65 195.83C129.15 200.95 147.05 196.75 164.19 198.95C167.11 199.32 170.03 199.89 172.98 199.76C174.85 199.68 176.92 199.38 178.45 200.47L177.78 200.73L177.77 200.72Z" fill="black"/>
</g>
<path d="M178.88 198.3C169.93 189.36 156.9 184.68 144.3 185.88C132.28 187.03 121.12 193.16 109.08 194.02C119.46 198.94 130.18 203.96 141.65 204.6C148.1 204.96 154.54 203.92 160.91 202.84C167.07 201.79 173.22 200.7 179.37 199.57" fill="white"/>
<path d="M179.49 197.68C172.94 191.2 164.37 186.86 155.27 185.4C150.67 184.66 146.04 184.66 141.44 185.36C136.33 186.14 131.39 187.69 126.46 189.21C120.77 190.96 115.03 192.68 109.07 193.14C108.29 193.2 107.78 194.36 108.63 194.76C116.88 198.67 125.26 202.64 134.26 204.48C143.77 206.43 153.14 205.03 162.59 203.41C168.26 202.44 173.93 201.43 179.59 200.39C180.69 200.19 180.22 198.51 179.13 198.71C174.36 199.59 169.58 200.44 164.8 201.27C160.02 202.1 155.19 203 150.34 203.47C145.49 203.94 141.08 203.91 136.5 203.13C131.92 202.35 127.85 201.08 123.69 199.51C118.86 197.68 114.18 195.47 109.51 193.25L109.07 194.87C119.08 194.11 128.3 189.94 138 187.77C147.7 185.6 156.77 186.36 165.47 190.21C170.22 192.31 174.56 195.25 178.25 198.9C179.05 199.69 180.28 198.46 179.48 197.67L179.49 197.68Z" fill="black"/>
<path d="M179.06 198.17C176.95 201.2 174.2 203.74 171 205.59C167.5 207.61 163.61 208.6 159.63 209.1C151.29 210.14 142.71 210.72 134.31 210.63C129.38 210.57 124.47 210.16 119.63 209.19C118.54 208.97 118.07 210.64 119.17 210.87C128.1 212.67 137.22 212.58 146.27 211.98C150.8 211.68 155.36 211.39 159.86 210.82C163.81 210.32 167.66 209.39 171.19 207.49C174.94 205.47 178.13 202.55 180.56 199.06C181.2 198.14 179.69 197.27 179.06 198.18V198.17Z" fill="black"/>
<path d="M182.5 191.93C174.34 190.62 168.1 184.8 161.28 180.64C154.12 176.27 145.81 174.19 137.43 174.91C132.71 175.31 128.13 176.56 123.86 178.61C122.85 179.09 123.73 180.59 124.74 180.11C132.28 176.49 141.02 175.58 149.16 177.46C153.23 178.4 157.02 180.06 160.58 182.24C163.9 184.28 167.02 186.64 170.31 188.72C173.92 191 177.79 192.92 182.04 193.61C183.13 193.79 183.61 192.11 182.5 191.93Z" fill="black"/>
<path d="M118.34 182.4C114.56 183.59 111.08 186.08 106.97 185.95C102.86 185.82 99.17 183.89 95.14 183.54C94.03 183.44 94.03 185.18 95.14 185.28C99.3 185.64 103.16 187.7 107.37 187.7C111.58 187.7 114.97 185.29 118.8 184.08C119.86 183.74 119.41 182.07 118.34 182.4Z" fill="black"/>
<path d="M159.83 187.94C161.84 189.11 163.46 190.95 164.38 193.08C164.99 194.51 165.3 196.13 164.84 197.62C164.56 198.53 164.02 199.33 163.38 200.04C161.41 202.25 158.52 203.6 155.56 203.69C152.6 203.78 149.63 202.62 147.53 200.54C146.12 199.14 145.08 197.32 144.84 195.35C144.39 191.76 146.8 188.12 150.17 186.8C153.54 185.48 157.57 186.39 160.31 188.75" fill="#CE1B0D"/>
<path d="M159.39 188.69C162.14 190.35 165.26 194.26 163.9 197.69C162.54 201.12 158.33 202.93 154.93 202.83C151.3 202.72 147.64 200.53 146.21 197.12C144.88 193.96 146.2 190.34 148.98 188.42C152.26 186.17 156.76 186.9 159.7 189.37C160.55 190.08 161.79 188.86 160.93 188.14C157.71 185.45 153.1 184.42 149.21 186.28C145.58 188.02 143.27 192.22 144.1 196.2C145.02 200.57 149.16 203.77 153.44 204.42C157.72 205.07 162.35 203.22 164.82 199.61C167.83 195.2 164.2 189.56 160.27 187.19C159.31 186.61 158.43 188.11 159.39 188.69Z" fill="black"/>
<path d="M155.58 194.16C154.92 193.51 154.2 192.87 153.33 192.56C152.46 192.25 151.39 192.31 150.7 192.94C149.79 193.78 149.86 195.2 150 196.43C150.07 197.01 150.21 197.71 150.77 197.92C151 198.01 151.26 197.98 151.5 197.95C152.25 197.85 153 197.71 153.74 197.51C154.4 197.33 155.09 197.08 155.45 196.5C155.89 195.79 155.66 194.88 155.42 194.09" fill="black"/>
<path d="M156.2 193.55C155.12 192.48 153.8 191.46 152.19 191.51C150.58 191.56 149.41 192.61 149.14 194.15C149.02 194.83 149.03 195.51 149.1 196.19C149.17 196.92 149.27 197.66 149.76 198.24C150.4 198.99 151.34 198.85 152.21 198.72C152.98 198.6 153.78 198.45 154.52 198.17C155.38 197.85 156.13 197.32 156.43 196.41C156.7 195.58 156.49 194.67 156.25 193.85C156.12 193.42 155.64 193.1 155.18 193.24C154.72 193.38 154.43 193.84 154.57 194.31C154.65 194.57 154.72 194.83 154.78 195.1C154.78 195.08 154.82 195.37 154.81 195.25C154.8 195.13 154.82 195.42 154.82 195.4C154.82 195.46 154.82 195.52 154.82 195.58C154.82 195.6 154.79 195.86 154.82 195.69C154.81 195.76 154.79 195.83 154.77 195.9C154.73 196.04 154.87 195.75 154.74 195.97C154.71 196.02 154.68 196.07 154.65 196.11C154.73 195.99 154.65 196.1 154.63 196.12C154.58 196.16 154.54 196.21 154.48 196.26C154.37 196.35 154.64 196.18 154.43 196.29C154.31 196.35 154.19 196.43 154.07 196.48C154.2 196.42 154.07 196.48 154.05 196.48C153.98 196.5 153.92 196.53 153.85 196.55C153.73 196.59 153.61 196.62 153.49 196.65C153.14 196.74 152.79 196.83 152.43 196.9C152.11 196.96 151.79 197.02 151.47 197.06C151.44 197.06 151.25 197.08 151.16 197.09C151.13 197.09 150.93 197.09 151.07 197.09L151.12 197.12C151.12 197.12 151.04 197.08 151 197.05C151.02 197.07 151.15 197.14 151.02 197.05C151.12 197.12 151.07 197.13 151.03 197.05C151.03 197.05 150.93 196.84 150.98 196.96C151.03 197.08 150.95 196.85 150.95 196.85C150.92 196.75 150.9 196.65 150.88 196.55C150.88 196.55 150.84 196.3 150.86 196.44C150.88 196.55 150.85 196.31 150.84 196.29C150.78 195.77 150.75 195.24 150.79 194.72C150.79 194.68 150.82 194.5 150.79 194.67C150.79 194.62 150.81 194.56 150.82 194.51C150.84 194.39 150.87 194.28 150.91 194.17C150.93 194.11 150.95 194.05 150.97 193.99C150.96 194.03 150.9 194.13 150.97 193.99C151.03 193.88 151.09 193.76 151.17 193.66C151.07 193.79 151.18 193.66 151.21 193.63C151.26 193.58 151.31 193.54 151.36 193.49C151.25 193.58 151.36 193.49 151.38 193.49C151.44 193.46 151.49 193.42 151.55 193.39C151.59 193.37 151.75 193.31 151.6 193.36C151.65 193.34 151.7 193.33 151.75 193.31C151.8 193.29 151.85 193.28 151.91 193.27C151.96 193.26 152.16 193.24 152 193.25C152.15 193.24 152.3 193.24 152.45 193.25C152.49 193.25 152.67 193.28 152.51 193.25C152.59 193.26 152.67 193.28 152.75 193.3C153.08 193.38 153.16 193.42 153.45 193.58C154.04 193.91 154.43 194.28 154.94 194.78C155.27 195.11 155.84 195.11 156.17 194.78C156.5 194.45 156.51 193.88 156.17 193.55H156.2Z" fill="black"/>
<g opacity="0.26">
<path d="M179.36 193.81C171.06 186.93 161.45 181.42 151.12 178.22C145.48 176.48 139.76 176.21 133.97 177.28C128.18 178.35 122.93 180.49 117.66 182.76C112.39 185.03 106.19 187.81 100.61 185.45C99.46 184.96 98.13 185.1 97.44 186.28C96.87 187.25 97.11 188.96 98.27 189.45C103.55 191.69 109.14 191 114.41 189.07C119.68 187.14 124.62 184.63 129.98 183.03C135.34 181.43 140.93 180.62 146.44 181.79C151.64 182.89 156.68 185.04 161.39 187.45C166.62 190.12 171.56 193.35 176.08 197.09C177.04 197.89 178.41 198.03 179.36 197.09C180.18 196.27 180.33 194.61 179.36 193.81Z" fill="black"/>
</g>
<path d="M183.56 187.25C180.16 187.69 177.78 185.01 176.15 182.38C174.7 180.04 173.39 177.67 171.57 175.59C168.3 171.86 164.07 169.09 159.51 167.2C148.87 162.8 137.15 163.57 126.28 166.7C119.27 168.72 112.55 171.64 105.92 174.65C104.9 175.11 105.79 176.61 106.8 176.15C118.34 170.91 130.62 165.71 143.53 165.8C153.59 165.87 164.23 169.43 170.81 177.36C174.26 181.53 176.71 189.87 183.57 188.98C184.66 188.84 184.68 187.1 183.57 187.24L183.56 187.25Z" fill="black"/>
<path d="M113.53 213.22C120.76 219.21 130.94 219.87 140.31 219.49C156.63 218.83 172.79 215.88 188.59 211.76C216.88 204.39 245.93 191.89 261.87 167.38C261.05 174.8 260 182.19 258.71 189.53C256.99 199.35 254.79 209.26 250.03 218.02C242.91 231.12 228.52 239.98 215.04 245.31C199.08 251.62 180.61 250.71 163.94 247.88C159.41 247.11 154.88 246.23 150.53 244.75C146.76 243.47 143.15 241.75 139.73 239.72C134.54 236.65 129.79 232.84 125.63 228.48C121.41 224.05 118.65 218.24 114.13 214.25" fill="white"/>
<path d="M112.92 213.83C121.38 220.71 132.87 220.81 143.23 220.22C155.9 219.5 168.47 217.44 180.83 214.57C201.17 209.85 221.7 203.21 239.09 191.35C248.34 185.04 256.5 177.21 262.64 167.82L261.02 167.38C260.17 175.02 259.09 182.63 257.73 190.2C256.48 197.19 254.97 204.18 252.41 210.82C250.07 216.89 246.77 222.39 242.26 227.09C238.02 231.51 233.04 235.16 227.76 238.24C222.48 241.32 216.65 244.08 210.71 245.94C204.08 248.02 197.15 248.96 190.21 249.16C183.27 249.36 176.52 248.85 169.75 247.92C162.62 246.94 155.35 245.77 148.61 243.15C141.25 240.29 134.48 235.79 128.75 230.38C126.03 227.81 123.74 225 121.58 221.96C119.42 218.92 117.43 216.08 114.75 213.66C113.92 212.91 112.69 214.14 113.52 214.89C118.52 219.38 121.49 225.64 126.26 230.38C131.03 235.12 137.03 239.56 143.33 242.69C150.17 246.09 157.5 247.72 164.99 248.95C171.86 250.07 178.81 250.83 185.78 250.93C192.75 251.03 200.05 250.45 206.97 248.78C213.21 247.28 219.18 244.77 224.87 241.82C235.97 236.05 246.23 227.89 251.83 216.47C255.4 209.19 257.4 201.28 258.91 193.36C260.55 184.77 261.79 176.09 262.75 167.4C262.85 166.48 261.56 166.31 261.13 166.96C250.22 183.64 233 194.78 214.85 202.25C205.5 206.1 195.82 209.07 186.02 211.54C173.95 214.59 161.68 216.94 149.27 218.05C137.83 219.08 123.7 220.39 114.15 212.62C113.29 211.92 112.05 213.14 112.92 213.85V213.83Z" fill="black"/>
<path d="M120.45 218.62C125.59 225.9 131.15 232.87 137.12 239.48C137.6 240.02 138.34 239.65 138.57 239.1C140.22 235.1 142.15 231.21 144.34 227.48C145.41 225.65 146.54 223.84 147.74 222.09C148.08 221.6 148.35 221.01 148.98 220.95C149.57 220.89 150.01 221.34 150.41 221.73C151.16 222.44 151.84 223.23 152.56 223.98C158.48 230.12 164.73 235.95 171.26 241.44C174.93 244.53 178.7 247.5 182.54 250.37C182.89 250.63 183.55 250.45 183.73 250.06C189.88 236.29 197.05 222.97 201.7 208.57L200.42 209.09C212.49 217 218.89 231.12 231.89 237.86C232.51 238.18 233.13 237.77 233.2 237.11C234.78 221.95 236.73 206.83 238.31 191.68L237.21 192.52C244.03 193.81 249.83 197.7 256.38 199.79C256.89 199.95 257.52 199.51 257.48 198.95C256.89 191.23 257.4 183.49 256.81 175.77C256.73 174.66 254.99 174.65 255.07 175.77C255.66 183.49 255.15 191.23 255.74 198.95L256.84 198.11C250.28 196.02 244.5 192.13 237.67 190.84C237.07 190.73 236.63 191.09 236.57 191.68C234.99 206.84 233.04 221.96 231.46 237.11L232.77 236.36C219.81 229.64 213.36 215.5 201.3 207.59C200.81 207.27 200.19 207.6 200.02 208.11C195.41 222.36 188.31 235.55 182.22 249.18L183.41 248.87C175.84 243.21 168.6 237.12 161.74 230.63C158.32 227.39 155.08 223.98 151.76 220.64C150.6 219.48 148.99 218.54 147.48 219.7C146.84 220.19 146.41 220.95 145.97 221.6C145.29 222.61 144.63 223.63 143.99 224.66C141.23 229.12 138.88 233.81 136.88 238.65L138.33 238.27C132.46 231.76 126.98 224.92 121.93 217.76C121.29 216.85 119.78 217.72 120.43 218.64L120.45 218.62Z" fill="black"/>
<path d="M240.12 425.88C296.873 425.88 342.88 379.873 342.88 323.12C342.88 266.367 296.873 220.36 240.12 220.36C183.367 220.36 137.36 266.367 137.36 323.12C137.36 379.873 183.367 425.88 240.12 425.88Z" fill="url(#paint0_linear_725_1071)" stroke="white" stroke-width="5" stroke-miterlimit="10"/>
<path d="M122.94 312.07C127.36 317.57 132.07 323.3 138.6 325.98C144.11 328.24 150.27 328.06 156.2 328.63C162.13 329.2 168.48 330.85 172.12 335.57C173.47 337.32 174.35 339.39 175.13 341.46C176.31 344.59 177.3 347.97 176.61 351.25C175.75 355.33 172.46 358.43 169.1 360.91C163.85 364.77 157.83 367.87 151.34 368.5C144.86 369.13 137.87 366.97 133.79 361.89" fill="#3461D5"/>
<path d="M121.88 313.13C126.71 319.14 131.92 325.32 139.46 327.89C147 330.46 155.63 329.03 163.39 331.55C166.91 332.69 170.04 334.72 171.92 337.98C173.01 339.87 173.79 341.96 174.44 344.03C175.09 346.1 175.57 348.26 175.25 350.4C174.68 354.24 171.61 357.15 168.66 359.37C165.39 361.83 161.79 364.02 157.93 365.42C150.08 368.27 140.48 367.66 134.86 360.82C133.63 359.33 131.52 361.46 132.74 362.94C137.93 369.25 146.73 371.1 154.47 369.52C158.82 368.63 162.95 366.72 166.7 364.36C170.18 362.17 173.68 359.61 176.05 356.2C178.67 352.42 178.76 347.97 177.48 343.67C176.2 339.37 174.52 335.22 171.16 332.39C164.55 326.82 155.56 327.27 147.48 326.46C142.44 325.95 137.78 324.53 133.75 321.38C130 318.45 126.98 314.69 124.01 311C122.8 309.5 120.69 311.63 121.89 313.12L121.88 313.13Z" fill="black"/>
<path d="M298.51 214.89C301.05 220.97 300.22 228.33 296.4 233.69C295.28 235.26 293.93 236.66 292.89 238.28C289.07 244.23 290.07 251.95 291.2 258.93C292.51 267 293.83 275.11 296.51 282.83C297.28 285.04 298.19 287.28 299.8 288.98C301.88 291.17 304.86 292.23 307.72 293.2C312.87 294.96 319.26 296.48 323.2 292.72C324.75 291.23 325.59 289.17 326.38 287.16C328.19 282.58 330 278 331.81 273.41" fill="#3461D5"/>
<path d="M297.07 215.29C298.57 218.98 298.89 223.01 297.91 226.88C297.42 228.8 296.64 230.62 295.55 232.28C294.35 234.12 292.78 235.67 291.59 237.52C287 244.68 288.84 253.81 290.13 261.65C290.89 266.3 291.7 270.96 292.82 275.54C293.84 279.72 294.9 284.43 297.24 288.1C299.58 291.77 303.14 293.2 306.93 294.51C310.39 295.7 314.16 296.83 317.87 296.48C319.87 296.29 321.79 295.7 323.4 294.47C325.22 293.08 326.32 291.13 327.19 289.05C329.31 284.02 331.22 278.88 333.23 273.8C333.94 272 331.04 271.22 330.34 273C328.65 277.28 326.96 281.55 325.28 285.83C323.93 289.26 322.52 292.64 318.51 293.38C315.17 294 311.59 292.9 308.45 291.85C304.79 290.62 301.24 289.27 299.32 285.69C297.4 282.11 296.38 277.62 295.44 273.59C294.44 269.3 293.69 264.96 292.98 260.61C291.77 253.24 290.02 244.61 294.81 238.11C296.16 236.27 297.73 234.62 298.84 232.6C299.82 230.82 300.54 228.88 300.97 226.9C301.85 222.77 301.55 218.41 299.95 214.48C299.23 212.71 296.33 213.49 297.06 215.28L297.07 215.29Z" fill="black"/>
<defs>
<linearGradient id="paint0_linear_725_1071" x1="137.36" y1="323.12" x2="342.88" y2="323.12" gradientUnits="userSpaceOnUse">
<stop stop-color="#0071BC"/>
<stop offset="1" stop-color="#22B573"/>
</linearGradient>
</defs>
</svg>
