<svg width="390" height="347" viewBox="0 0 390 347" fill="none" xmlns="http://www.w3.org/2000/svg">
<path d="M324.44 37.29C303.63 37.29 285.16 28.59 270.13 14.79C268.13 12.95 266.29 10.99 264.58 8.92999C261.46 15.34 257.19 21.07 251.75 26.13C237.82 40.06 217.13 48.63 197.44 48.63C176.63 48.63 158.16 39.93 143.13 26.13C138.2 21.61 134.2 16.36 131 10.65C117.19 23 97.92 30.48 79.52 30.48C61.12 30.48 44.04 23.45 29.93 12.03C14.4 24.8 4.5 44.16 4.5 65.83V272.37C4.5 310.82 35.67 342 74.13 342H315.88C354.33 342 385.51 310.83 385.51 272.37V65.84C385.51 49.3 379.73 34.11 370.09 22.16C356.96 31.68 340.38 37.29 324.44 37.29Z" fill="#162256" stroke="white" stroke-width="9" stroke-miterlimit="10"/>
</svg>
