<svg width="391" height="355" viewBox="0 0 391 355" fill="none" xmlns="http://www.w3.org/2000/svg">
<path d="M316.37 4.52002H74.63C36.18 4.52002 5 35.69 5 74.15V280.69C5 319.14 36.17 350.32 74.63 350.32H227.17C229.23 347.62 231.52 345.07 234.1 342.67C240.6 336.17 248.59 330.85 257.25 327.01C255.8 320.93 254.97 314.7 254.69 308.53C254.29 297.96 256.5 288.09 261.3 278.94C264.4 269.42 269.69 261.18 277.18 254.22C291.11 240.29 311.8 231.72 331.49 231.72C341.45 231.72 350.87 233.73 359.64 237.32C362.76 230.94 367.01 225.23 372.43 220.2C376.45 216.18 381.04 212.63 386 209.58V74.15C386 35.7 354.83 4.52002 316.37 4.52002Z" fill="#2C3556" stroke="white" stroke-width="9" stroke-miterlimit="10"/>
</svg>
